<?xml version="1.0" encoding="utf-8"?>
<mlt LC_NUMERIC="ru_RU" version="6.13.0" title="Shotcut version 19.02.28" producer="main_bin">
  <profile description="automatic" width="1920" height="1080" progressive="1" sample_aspect_num="1" sample_aspect_den="1" display_aspect_num="1920" display_aspect_den="1080" frame_rate_num="30" frame_rate_den="1" colorspace="709"/>
  <playlist id="main_bin">
    <property name="xml_retain">1</property>
  </playlist>
  <producer id="black" in="00:00:00,000" out="00:09:12,167">
    <property name="length">16566</property>
    <property name="eof">pause</property>
    <property name="resource">black</property>
    <property name="aspect_ratio">1</property>
    <property name="mlt_service">color</property>
    <property name="mlt_image_format">rgb24</property>
    <property name="set.test_audio">0</property>
  </producer>
  <playlist id="background">
    <entry producer="black" in="00:00:00,000" out="00:09:12,167"/>
  </playlist>
  <producer id="producer0" title="Anonymous Submission" in="00:00:00,000" out="01:28:15,367">
    <property name="length">01:28:15:12</property>
    <property name="eof">pause</property>
    <property name="resource">C:/Users/User/Videos/2021-01-15 23-25-09.mp4</property>
    <property name="audio_index">1</property>
    <property name="video_index">0</property>
    <property name="mute_on_pause">0</property>
    <property name="mlt_service">avformat-novalidate</property>
    <property name="seekable">1</property>
    <property name="aspect_ratio">1</property>
    <property name="shotcut:hash">930de6b08857e5fe9700e5dd50299c9a</property>
    <property name="ignore_points">0</property>
    <property name="shotcut:caption">2021-01-15 23-25-09.mp4</property>
    <property name="shotcut:detail">C:\Users\User\Videos\2021-01-15 23-25-09.mp4</property>
    <property name="shotcut:skipConvert">1</property>
    <property name="global_feed">1</property>
    <property name="xml">was here</property>
    <filter id="filter0" in="00:33:19,900" out="00:33:22,300">
      <property name="argument">Шизокинокомпания по производству видеофотоконсернов "Некрон" представляет шоу
  </property>
      <property name="geometry">342 575 1618 939 1</property>
      <property name="family">Impact</property>
      <property name="size">24</property>
      <property name="weight">500</property>
      <property name="style">normal</property>
      <property name="fgcolour">#55aa00</property>
      <property name="bgcolour">#00000000</property>
      <property name="olcolour">#aa557f</property>
      <property name="pad">0</property>
      <property name="halign">center</property>
      <property name="valign">middle</property>
      <property name="outline">0</property>
      <property name="mlt_service">dynamictext</property>
      <property name="shotcut:filter">dynamicText</property>
      <property name="shotcut:usePointSize">1</property>
      <property name="shotcut:animIn">00:00:00,000</property>
      <property name="shotcut:animOut">00:00:00,000</property>
      <property name="disable">0</property>
      <property name="shotcut:pointSize">18</property>
    </filter>
    <filter id="filter1" in="00:33:19,900" out="00:33:22,300">
      <property name="background">colour:0</property>
      <property name="mlt_service">affine</property>
      <property name="shotcut:filter">affineSizePosition</property>
      <property name="transition.fill">1</property>
      <property name="transition.distort">0</property>
      <property name="transition.rect">-1193 -1049 3532 1990 1</property>
      <property name="transition.valign">top</property>
      <property name="transition.halign">left</property>
      <property name="shotcut:animIn">00:00:00,000</property>
      <property name="shotcut:animOut">00:00:00,000</property>
      <property name="transition.threads">0</property>
      <property name="disable">0</property>
    </filter>
  </producer>
  <producer id="producer1" title="Anonymous Submission" in="00:00:00,000" out="01:28:15,367">
    <property name="length">01:28:15:12</property>
    <property name="eof">pause</property>
    <property name="resource">C:/Users/User/Videos/2021-01-15 23-25-09.mp4</property>
    <property name="audio_index">1</property>
    <property name="video_index">0</property>
    <property name="mute_on_pause">0</property>
    <property name="mlt_service">avformat-novalidate</property>
    <property name="seekable">1</property>
    <property name="aspect_ratio">1</property>
    <property name="shotcut:hash">930de6b08857e5fe9700e5dd50299c9a</property>
    <property name="ignore_points">0</property>
    <property name="shotcut:caption">2021-01-15 23-25-09.mp4</property>
    <property name="shotcut:detail">C:\Users\User\Videos\2021-01-15 23-25-09.mp4</property>
    <property name="shotcut:skipConvert">1</property>
    <property name="global_feed">1</property>
    <property name="xml">was here</property>
    <filter id="filter2" in="00:33:22,333" out="00:33:24,733">
      <property name="argument">Шизокинокомпания по производству видеофотоконсернов "Некрон" представляет шоу
  </property>
      <property name="geometry">342 575 1618 939 1</property>
      <property name="family">Impact</property>
      <property name="size">24</property>
      <property name="weight">500</property>
      <property name="style">normal</property>
      <property name="fgcolour">#55aa00</property>
      <property name="bgcolour">#00000000</property>
      <property name="olcolour">#aa557f</property>
      <property name="pad">0</property>
      <property name="halign">center</property>
      <property name="valign">middle</property>
      <property name="outline">0</property>
      <property name="mlt_service">dynamictext</property>
      <property name="shotcut:filter">dynamicText</property>
      <property name="shotcut:usePointSize">1</property>
      <property name="shotcut:animIn">00:00:00,000</property>
      <property name="shotcut:animOut">00:00:00,000</property>
      <property name="disable">0</property>
      <property name="shotcut:pointSize">18</property>
    </filter>
    <filter id="filter3" in="00:33:22,333" out="00:33:24,733">
      <property name="background">colour:0</property>
      <property name="mlt_service">affine</property>
      <property name="shotcut:filter">affineSizePosition</property>
      <property name="transition.fill">1</property>
      <property name="transition.distort">0</property>
      <property name="transition.rect">-1193 -1049 3532 1990 1</property>
      <property name="transition.valign">top</property>
      <property name="transition.halign">left</property>
      <property name="shotcut:animIn">00:00:00,000</property>
      <property name="shotcut:animOut">00:00:00,000</property>
      <property name="transition.threads">0</property>
      <property name="disable">0</property>
    </filter>
    <filter id="filter4" in="00:33:22,333" out="00:33:24,733">
      <property name="argument">КИНОКАРТОЧКУ</property>
      <property name="geometry">296 182 1221 753 1</property>
      <property name="family">Impact</property>
      <property name="size">34</property>
      <property name="weight">500</property>
      <property name="style">normal</property>
      <property name="fgcolour">#ffffffff</property>
      <property name="bgcolour">#00000000</property>
      <property name="olcolour">#ff000000</property>
      <property name="pad">0</property>
      <property name="halign">center</property>
      <property name="valign">bottom</property>
      <property name="outline">2</property>
      <property name="mlt_service">dynamictext</property>
      <property name="shotcut:filter">dynamicText</property>
      <property name="shotcut:usePointSize">1</property>
      <property name="shotcut:animIn">00:00:00,000</property>
      <property name="shotcut:animOut">00:00:00,000</property>
      <property name="shotcut:pointSize">26</property>
    </filter>
  </producer>
  <producer id="producer2" title="Anonymous Submission" in="00:00:00,000" out="01:28:15,367">
    <property name="length">01:28:15:12</property>
    <property name="eof">pause</property>
    <property name="resource">C:/Users/User/Videos/2021-01-15 23-25-09.mp4</property>
    <property name="audio_index">1</property>
    <property name="video_index">0</property>
    <property name="mute_on_pause">0</property>
    <property name="mlt_service">avformat-novalidate</property>
    <property name="seekable">1</property>
    <property name="aspect_ratio">1</property>
    <property name="shotcut:hash">930de6b08857e5fe9700e5dd50299c9a</property>
    <property name="ignore_points">0</property>
    <property name="shotcut:caption">2021-01-15 23-25-09.mp4</property>
    <property name="shotcut:detail">C:\Users\User\Videos\2021-01-15 23-25-09.mp4</property>
    <property name="shotcut:skipConvert">1</property>
    <property name="global_feed">1</property>
    <property name="xml">was here</property>
    <filter id="filter5" in="00:33:24,767" out="00:33:28,733">
      <property name="argument">Шизокинокомпания по производству видеофотоконсернов "Некрон" представляет шоу
  </property>
      <property name="geometry">342 575 1618 939 1</property>
      <property name="family">Impact</property>
      <property name="size">24</property>
      <property name="weight">500</property>
      <property name="style">normal</property>
      <property name="fgcolour">#55aa00</property>
      <property name="bgcolour">#00000000</property>
      <property name="olcolour">#aa557f</property>
      <property name="pad">0</property>
      <property name="halign">center</property>
      <property name="valign">middle</property>
      <property name="outline">0</property>
      <property name="mlt_service">dynamictext</property>
      <property name="shotcut:filter">dynamicText</property>
      <property name="shotcut:usePointSize">1</property>
      <property name="shotcut:animIn">00:00:00,000</property>
      <property name="shotcut:animOut">00:00:00,000</property>
      <property name="disable">0</property>
      <property name="shotcut:pointSize">18</property>
    </filter>
    <filter id="filter6" in="00:33:24,767" out="00:33:28,733">
      <property name="background">colour:0</property>
      <property name="mlt_service">affine</property>
      <property name="shotcut:filter">affineSizePosition</property>
      <property name="transition.fill">1</property>
      <property name="transition.distort">0</property>
      <property name="transition.rect">-1193 -1049 3532 1990 1</property>
      <property name="transition.valign">top</property>
      <property name="transition.halign">left</property>
      <property name="shotcut:animIn">00:00:00,000</property>
      <property name="shotcut:animOut">00:00:00,000</property>
      <property name="transition.threads">0</property>
      <property name="disable">0</property>
    </filter>
    <filter id="filter7" in="00:33:24,767" out="00:33:28,733">
      <property name="argument">КИНОКАРТОЧКУ</property>
      <property name="geometry">296 182 1221 753 1</property>
      <property name="family">Impact</property>
      <property name="size">34</property>
      <property name="weight">500</property>
      <property name="style">normal</property>
      <property name="fgcolour">#ffffffff</property>
      <property name="bgcolour">#00000000</property>
      <property name="olcolour">#ff000000</property>
      <property name="pad">0</property>
      <property name="halign">center</property>
      <property name="valign">bottom</property>
      <property name="outline">2</property>
      <property name="mlt_service">dynamictext</property>
      <property name="shotcut:filter">dynamicText</property>
      <property name="shotcut:usePointSize">1</property>
      <property name="shotcut:animIn">00:00:00,000</property>
      <property name="shotcut:animOut">00:00:00,000</property>
      <property name="shotcut:pointSize">26</property>
    </filter>
    <filter id="filter8" in="00:33:24,767" out="00:33:28,733">
      <property name="argument">РЖАВАЯ ШИЗОФАЗИЯ</property>
      <property name="geometry">00:00:00,000=9 -69 1920 1080 1;00:00:00,467=103 -69 1920 1080 1;00:00:01,000=-233 -44 1920 1080 1;00:00:01,667=-262 -126 1920 1080 1;00:00:02,333=1 -7 1920 1080 1;00:00:03,067=166 -44 1920 1080 1;00:00:03,700=1 -512 1920 1080 1;00:00:03,733=976 -487 1920 1080 1</property>
      <property name="family">Comic Sans MS</property>
      <property name="size">64</property>
      <property name="weight">500</property>
      <property name="style">normal</property>
      <property name="fgcolour">#ffaa00</property>
      <property name="bgcolour">#00000000</property>
      <property name="olcolour">#ff000000</property>
      <property name="pad">0</property>
      <property name="halign">center</property>
      <property name="valign">bottom</property>
      <property name="outline">0</property>
      <property name="mlt_service">dynamictext</property>
      <property name="shotcut:filter">dynamicText</property>
      <property name="shotcut:usePointSize">1</property>
      <property name="shotcut:animIn">00:00:00,000</property>
      <property name="shotcut:animOut">00:00:00,000</property>
      <property name="shotcut:pointSize">48</property>
    </filter>
  </producer>
  <producer id="producer3" title="Anonymous Submission" in="00:00:00,000" out="01:28:15,367">
    <property name="length">01:28:15:12</property>
    <property name="eof">pause</property>
    <property name="resource">C:/Users/User/Videos/2021-01-15 23-25-09.mp4</property>
    <property name="audio_index">1</property>
    <property name="video_index">0</property>
    <property name="mute_on_pause">0</property>
    <property name="mlt_service">avformat-novalidate</property>
    <property name="seekable">1</property>
    <property name="aspect_ratio">1</property>
    <property name="shotcut:hash">930de6b08857e5fe9700e5dd50299c9a</property>
    <property name="ignore_points">0</property>
    <property name="shotcut:caption">2021-01-15 23-25-09.mp4</property>
    <property name="shotcut:detail">C:\Users\User\Videos\2021-01-15 23-25-09.mp4</property>
    <property name="shotcut:skipConvert">1</property>
    <property name="global_feed">1</property>
    <property name="xml">was here</property>
    <filter id="filter9" in="00:33:28,767" out="00:34:04,733">
      <property name="background">colour:0</property>
      <property name="mlt_service">affine</property>
      <property name="shotcut:filter">affineSizePosition</property>
      <property name="transition.fill">1</property>
      <property name="transition.distort">0</property>
      <property name="transition.rect">-1193 -1049 3532 1990 1</property>
      <property name="transition.valign">top</property>
      <property name="transition.halign">left</property>
      <property name="shotcut:animIn">00:00:00,000</property>
      <property name="shotcut:animOut">00:00:00,000</property>
      <property name="transition.threads">0</property>
      <property name="disable">0</property>
    </filter>
  </producer>
  <producer id="producer4" title="Anonymous Submission" in="00:00:00,000" out="01:28:15,367">
    <property name="length">01:28:15:12</property>
    <property name="eof">pause</property>
    <property name="resource">C:/Users/User/Videos/2021-01-15 23-25-09.mp4</property>
    <property name="audio_index">1</property>
    <property name="video_index">0</property>
    <property name="mute_on_pause">0</property>
    <property name="mlt_service">avformat-novalidate</property>
    <property name="seekable">1</property>
    <property name="aspect_ratio">1</property>
    <property name="shotcut:hash">930de6b08857e5fe9700e5dd50299c9a</property>
    <property name="ignore_points">0</property>
    <property name="shotcut:caption">2021-01-15 23-25-09.mp4</property>
    <property name="shotcut:detail">C:\Users\User\Videos\2021-01-15 23-25-09.mp4</property>
    <property name="shotcut:skipConvert">1</property>
    <property name="global_feed">1</property>
    <property name="xml">was here</property>
    <filter id="filter10" in="00:34:04,767" out="00:34:09,233">
      <property name="background">colour:0</property>
      <property name="mlt_service">affine</property>
      <property name="shotcut:filter">affineSizePosition</property>
      <property name="transition.fill">1</property>
      <property name="transition.distort">0</property>
      <property name="transition.rect">-1193 -1049 3532 1990 1</property>
      <property name="transition.valign">top</property>
      <property name="transition.halign">left</property>
      <property name="shotcut:animIn">00:00:00,000</property>
      <property name="shotcut:animOut">00:00:00,000</property>
      <property name="transition.threads">0</property>
      <property name="disable">0</property>
    </filter>
    <filter id="filter11" in="00:34:04,767" out="00:34:09,233">
      <property name="background">colour:0</property>
      <property name="mlt_service">affine</property>
      <property name="shotcut:filter">affineRotate</property>
      <property name="transition.fix_rotate_x">0</property>
      <property name="transition.scale_x">00:00:01,567=0,506586</property>
      <property name="transition.ox">00:00:00,000|=-0;00:00:01,600=-0;00:00:02,600=-288;00:00:04,367=288</property>
      <property name="transition.oy">0</property>
      <property name="transition.threads">0</property>
      <property name="transition.scale_y">00:00:01,567=0,506586</property>
      <property name="shotcut:animIn">00:00:00,000</property>
      <property name="shotcut:animOut">00:00:00,000</property>
    </filter>
  </producer>
  <producer id="producer5" title="Anonymous Submission" in="00:00:00,000" out="01:28:15,367">
    <property name="length">01:28:15:12</property>
    <property name="eof">pause</property>
    <property name="resource">C:/Users/User/Videos/2021-01-15 23-25-09.mp4</property>
    <property name="audio_index">1</property>
    <property name="video_index">0</property>
    <property name="mute_on_pause">0</property>
    <property name="mlt_service">avformat-novalidate</property>
    <property name="seekable">1</property>
    <property name="aspect_ratio">1</property>
    <property name="shotcut:hash">930de6b08857e5fe9700e5dd50299c9a</property>
    <property name="ignore_points">0</property>
    <property name="shotcut:caption">2021-01-15 23-25-09.mp4</property>
    <property name="shotcut:detail">C:\Users\User\Videos\2021-01-15 23-25-09.mp4</property>
    <property name="shotcut:skipConvert">1</property>
    <property name="global_feed">1</property>
    <property name="xml">was here</property>
    <filter id="filter12" in="00:34:09,267" out="00:34:10,833">
      <property name="background">colour:0</property>
      <property name="mlt_service">affine</property>
      <property name="shotcut:filter">affineSizePosition</property>
      <property name="transition.fill">1</property>
      <property name="transition.distort">0</property>
      <property name="transition.rect">-1193 -1049 3532 1990 1</property>
      <property name="transition.valign">top</property>
      <property name="transition.halign">left</property>
      <property name="shotcut:animIn">00:00:00,000</property>
      <property name="shotcut:animOut">00:00:00,000</property>
      <property name="transition.threads">0</property>
      <property name="disable">0</property>
    </filter>
  </producer>
  <producer id="producer6" title="Anonymous Submission" in="00:00:00,000" out="01:28:15,367">
    <property name="length">01:28:15:12</property>
    <property name="eof">pause</property>
    <property name="resource">C:/Users/User/Videos/2021-01-15 23-25-09.mp4</property>
    <property name="audio_index">1</property>
    <property name="video_index">0</property>
    <property name="mute_on_pause">0</property>
    <property name="mlt_service">avformat-novalidate</property>
    <property name="seekable">1</property>
    <property name="aspect_ratio">1</property>
    <property name="shotcut:hash">930de6b08857e5fe9700e5dd50299c9a</property>
    <property name="ignore_points">0</property>
    <property name="shotcut:caption">2021-01-15 23-25-09.mp4</property>
    <property name="shotcut:detail">C:\Users\User\Videos\2021-01-15 23-25-09.mp4</property>
    <property name="shotcut:skipConvert">1</property>
    <property name="global_feed">1</property>
    <property name="xml">was here</property>
    <filter id="filter13" in="00:34:10,867" out="00:34:13,367">
      <property name="background">colour:0</property>
      <property name="mlt_service">affine</property>
      <property name="shotcut:filter">affineSizePosition</property>
      <property name="transition.fill">1</property>
      <property name="transition.distort">0</property>
      <property name="transition.rect">-1193 -1049 3532 1990 1</property>
      <property name="transition.valign">top</property>
      <property name="transition.halign">left</property>
      <property name="shotcut:animIn">00:00:00,000</property>
      <property name="shotcut:animOut">00:00:00,000</property>
      <property name="transition.threads">0</property>
      <property name="disable">0</property>
    </filter>
    <filter id="filter14" in="00:34:10,867" out="00:34:13,367">
      <property name="background">colour:0</property>
      <property name="mlt_service">affine</property>
      <property name="shotcut:filter">affineRotate</property>
      <property name="transition.fix_rotate_x">0</property>
      <property name="transition.scale_x">0,75643</property>
      <property name="transition.ox">00:00:00,000=-221;00:00:02,300=221</property>
      <property name="transition.oy">0</property>
      <property name="transition.threads">0</property>
      <property name="transition.scale_y">0,75643</property>
    </filter>
  </producer>
  <producer id="producer7" title="Anonymous Submission" in="00:00:00,000" out="01:28:15,367">
    <property name="length">01:28:15:12</property>
    <property name="eof">pause</property>
    <property name="resource">C:/Users/User/Videos/2021-01-15 23-25-09.mp4</property>
    <property name="audio_index">1</property>
    <property name="video_index">0</property>
    <property name="mute_on_pause">0</property>
    <property name="mlt_service">avformat-novalidate</property>
    <property name="seekable">1</property>
    <property name="aspect_ratio">1</property>
    <property name="shotcut:hash">930de6b08857e5fe9700e5dd50299c9a</property>
    <property name="ignore_points">0</property>
    <property name="shotcut:caption">2021-01-15 23-25-09.mp4</property>
    <property name="shotcut:detail">C:\Users\User\Videos\2021-01-15 23-25-09.mp4</property>
    <property name="shotcut:skipConvert">1</property>
    <property name="global_feed">1</property>
    <property name="xml">was here</property>
    <filter id="filter15" in="00:34:13,400" out="00:34:16,167">
      <property name="background">colour:0</property>
      <property name="mlt_service">affine</property>
      <property name="shotcut:filter">affineSizePosition</property>
      <property name="transition.fill">1</property>
      <property name="transition.distort">0</property>
      <property name="transition.rect">-1193 -1049 3532 1990 1</property>
      <property name="transition.valign">top</property>
      <property name="transition.halign">left</property>
      <property name="shotcut:animIn">00:00:00,000</property>
      <property name="shotcut:animOut">00:00:00,000</property>
      <property name="transition.threads">0</property>
      <property name="disable">0</property>
    </filter>
  </producer>
  <producer id="producer8" title="Anonymous Submission" in="00:00:00,000" out="01:28:15,367">
    <property name="length">01:28:15:12</property>
    <property name="eof">pause</property>
    <property name="resource">C:/Users/User/Videos/2021-01-15 23-25-09.mp4</property>
    <property name="audio_index">1</property>
    <property name="video_index">0</property>
    <property name="mute_on_pause">0</property>
    <property name="mlt_service">avformat-novalidate</property>
    <property name="seekable">1</property>
    <property name="aspect_ratio">1</property>
    <property name="shotcut:hash">930de6b08857e5fe9700e5dd50299c9a</property>
    <property name="ignore_points">0</property>
    <property name="shotcut:caption">2021-01-15 23-25-09.mp4</property>
    <property name="shotcut:detail">C:\Users\User\Videos\2021-01-15 23-25-09.mp4</property>
    <property name="shotcut:skipConvert">1</property>
    <property name="global_feed">1</property>
    <property name="xml">was here</property>
    <filter id="filter16" in="00:34:37,933" out="00:34:51,533">
      <property name="background">colour:0</property>
      <property name="mlt_service">affine</property>
      <property name="shotcut:filter">affineSizePosition</property>
      <property name="transition.fill">1</property>
      <property name="transition.distort">0</property>
      <property name="transition.rect">-1193 -1049 3532 1990 1</property>
      <property name="transition.valign">top</property>
      <property name="transition.halign">left</property>
      <property name="shotcut:animIn">00:00:00,000</property>
      <property name="shotcut:animOut">00:00:00,000</property>
      <property name="transition.threads">0</property>
      <property name="disable">0</property>
    </filter>
  </producer>
  <producer id="producer9" title="Anonymous Submission" in="00:00:00,000" out="01:28:15,367">
    <property name="length">01:28:15:12</property>
    <property name="eof">pause</property>
    <property name="resource">C:/Users/User/Videos/2021-01-15 23-25-09.mp4</property>
    <property name="audio_index">1</property>
    <property name="video_index">0</property>
    <property name="mute_on_pause">0</property>
    <property name="mlt_service">avformat-novalidate</property>
    <property name="seekable">1</property>
    <property name="aspect_ratio">1</property>
    <property name="shotcut:hash">930de6b08857e5fe9700e5dd50299c9a</property>
    <property name="ignore_points">0</property>
    <property name="shotcut:caption">2021-01-15 23-25-09.mp4</property>
    <property name="shotcut:detail">C:\Users\User\Videos\2021-01-15 23-25-09.mp4</property>
    <property name="shotcut:skipConvert">1</property>
    <property name="global_feed">1</property>
    <property name="xml">was here</property>
    <filter id="filter17" in="00:34:51,567" out="00:34:52,167">
      <property name="background">colour:0</property>
      <property name="mlt_service">affine</property>
      <property name="shotcut:filter">affineSizePosition</property>
      <property name="transition.fill">1</property>
      <property name="transition.distort">0</property>
      <property name="transition.rect">-1193 -1049 3532 1990 1</property>
      <property name="transition.valign">top</property>
      <property name="transition.halign">left</property>
      <property name="shotcut:animIn">00:00:00,000</property>
      <property name="shotcut:animOut">00:00:00,000</property>
      <property name="transition.threads">0</property>
      <property name="disable">0</property>
    </filter>
    <filter id="filter18" in="00:34:51,567" out="00:34:52,167">
      <property name="version">0,1</property>
      <property name="mlt_service">frei0r.glow</property>
      <property name="0">1</property>
      <property name="disable">1</property>
    </filter>
  </producer>
  <producer id="producer10" title="Anonymous Submission" in="00:00:00,000" out="01:28:15,367">
    <property name="length">01:28:15:12</property>
    <property name="eof">pause</property>
    <property name="resource">C:/Users/User/Videos/2021-01-15 23-25-09.mp4</property>
    <property name="audio_index">1</property>
    <property name="video_index">0</property>
    <property name="mute_on_pause">0</property>
    <property name="mlt_service">avformat-novalidate</property>
    <property name="seekable">1</property>
    <property name="aspect_ratio">1</property>
    <property name="shotcut:hash">930de6b08857e5fe9700e5dd50299c9a</property>
    <property name="ignore_points">0</property>
    <property name="shotcut:caption">2021-01-15 23-25-09.mp4</property>
    <property name="shotcut:detail">C:\Users\User\Videos\2021-01-15 23-25-09.mp4</property>
    <property name="shotcut:skipConvert">1</property>
    <property name="global_feed">1</property>
    <property name="xml">was here</property>
    <filter id="filter19" in="00:34:52,200" out="00:34:57,900">
      <property name="background">colour:0</property>
      <property name="mlt_service">affine</property>
      <property name="shotcut:filter">affineSizePosition</property>
      <property name="transition.fill">1</property>
      <property name="transition.distort">0</property>
      <property name="transition.rect">-1193 -1049 3532 1990 1</property>
      <property name="transition.valign">top</property>
      <property name="transition.halign">left</property>
      <property name="shotcut:animIn">00:00:00,000</property>
      <property name="shotcut:animOut">00:00:00,000</property>
      <property name="transition.threads">0</property>
      <property name="disable">0</property>
    </filter>
    <filter id="filter20" in="00:34:52,200" out="00:34:57,900">
      <property name="version">0,1</property>
      <property name="mlt_service">frei0r.glow</property>
      <property name="0">1</property>
      <property name="disable">0</property>
    </filter>
    <filter id="filter21" in="00:34:52,200" out="00:34:57,900">
      <property name="start">1</property>
      <property name="hori">00:00:03,100=2;00:00:05,700=32</property>
      <property name="vert">00:00:03,100=2;00:00:05,700=32</property>
      <property name="mlt_service">boxblur</property>
      <property name="shotcut:animIn">00:00:00,000</property>
      <property name="shotcut:animOut">00:00:00,000</property>
    </filter>
  </producer>
  <producer id="producer11" title="Anonymous Submission" in="00:00:00,000" out="01:28:15,367">
    <property name="length">01:28:15:12</property>
    <property name="eof">pause</property>
    <property name="resource">C:/Users/User/Videos/2021-01-15 23-25-09.mp4</property>
    <property name="audio_index">1</property>
    <property name="video_index">0</property>
    <property name="mute_on_pause">0</property>
    <property name="mlt_service">avformat-novalidate</property>
    <property name="seekable">1</property>
    <property name="aspect_ratio">1</property>
    <property name="shotcut:hash">930de6b08857e5fe9700e5dd50299c9a</property>
    <property name="ignore_points">0</property>
    <property name="shotcut:caption">2021-01-15 23-25-09.mp4</property>
    <property name="shotcut:detail">C:\Users\User\Videos\2021-01-15 23-25-09.mp4</property>
    <property name="shotcut:skipConvert">1</property>
    <property name="global_feed">1</property>
    <property name="xml">was here</property>
    <filter id="filter22" in="00:35:11,900" out="00:35:17,133">
      <property name="background">colour:0</property>
      <property name="mlt_service">affine</property>
      <property name="shotcut:filter">affineSizePosition</property>
      <property name="transition.fill">1</property>
      <property name="transition.distort">0</property>
      <property name="transition.rect">-1193 -1049 3532 1990 1</property>
      <property name="transition.valign">top</property>
      <property name="transition.halign">left</property>
      <property name="shotcut:animIn">00:00:00,000</property>
      <property name="shotcut:animOut">00:00:00,000</property>
      <property name="transition.threads">0</property>
      <property name="disable">0</property>
    </filter>
  </producer>
  <producer id="producer12" title="Anonymous Submission" in="00:00:00,000" out="01:28:15,367">
    <property name="length">01:28:15:12</property>
    <property name="eof">pause</property>
    <property name="resource">C:/Users/User/Videos/2021-01-15 23-25-09.mp4</property>
    <property name="audio_index">1</property>
    <property name="video_index">0</property>
    <property name="mute_on_pause">0</property>
    <property name="mlt_service">avformat-novalidate</property>
    <property name="seekable">1</property>
    <property name="aspect_ratio">1</property>
    <property name="shotcut:hash">930de6b08857e5fe9700e5dd50299c9a</property>
    <property name="ignore_points">0</property>
    <property name="shotcut:caption">2021-01-15 23-25-09.mp4</property>
    <property name="shotcut:detail">C:\Users\User\Videos\2021-01-15 23-25-09.mp4</property>
    <property name="shotcut:skipConvert">1</property>
    <property name="global_feed">1</property>
    <property name="xml">was here</property>
    <filter id="filter23" in="00:35:17,167" out="00:35:18,967">
      <property name="background">colour:0</property>
      <property name="mlt_service">affine</property>
      <property name="shotcut:filter">affineSizePosition</property>
      <property name="transition.fill">1</property>
      <property name="transition.distort">0</property>
      <property name="transition.rect">00:00:00,000=-1193 -1049 3532 1990 1;00:00:01,800=-1193 -1030 3532 1990 1</property>
      <property name="transition.valign">top</property>
      <property name="transition.halign">left</property>
      <property name="shotcut:animIn">00:00:00,000</property>
      <property name="shotcut:animOut">00:00:00,000</property>
      <property name="transition.threads">0</property>
      <property name="disable">0</property>
    </filter>
    <filter id="filter24" in="00:35:17,167" out="00:35:18,967">
      <property name="background">colour:0</property>
      <property name="mlt_service">affine</property>
      <property name="shotcut:filter">affineRotate</property>
      <property name="transition.fix_rotate_x">0</property>
      <property name="transition.scale_x">00:00:00,000=1;00:00:01,633=0,371333;00:00:01,800=0,524384</property>
      <property name="transition.ox">0</property>
      <property name="transition.oy">-0</property>
      <property name="transition.threads">0</property>
      <property name="shotcut:animIn">00:00:00,000</property>
      <property name="shotcut:animOut">00:00:00,000</property>
      <property name="transition.scale_y">00:00:00,000=1;00:00:01,633=0,371333;00:00:01,800=0,524384</property>
    </filter>
  </producer>
  <producer id="producer13" title="Anonymous Submission" in="00:00:00,000" out="01:28:15,367">
    <property name="length">01:28:15:12</property>
    <property name="eof">pause</property>
    <property name="resource">C:/Users/User/Videos/2021-01-15 23-25-09.mp4</property>
    <property name="audio_index">1</property>
    <property name="video_index">0</property>
    <property name="mute_on_pause">0</property>
    <property name="mlt_service">avformat-novalidate</property>
    <property name="seekable">1</property>
    <property name="aspect_ratio">1</property>
    <property name="shotcut:hash">930de6b08857e5fe9700e5dd50299c9a</property>
    <property name="ignore_points">0</property>
    <property name="shotcut:caption">2021-01-15 23-25-09.mp4</property>
    <property name="shotcut:detail">C:\Users\User\Videos\2021-01-15 23-25-09.mp4</property>
    <property name="shotcut:skipConvert">1</property>
    <property name="global_feed">1</property>
    <property name="xml">was here</property>
    <filter id="filter25" in="00:35:19,000" out="00:35:32,633">
      <property name="background">colour:0</property>
      <property name="mlt_service">affine</property>
      <property name="shotcut:filter">affineSizePosition</property>
      <property name="transition.fill">1</property>
      <property name="transition.distort">0</property>
      <property name="transition.rect">-1193 -1049 3532 1990 1</property>
      <property name="transition.valign">top</property>
      <property name="transition.halign">left</property>
      <property name="shotcut:animIn">00:00:00,000</property>
      <property name="shotcut:animOut">00:00:00,000</property>
      <property name="transition.threads">0</property>
      <property name="disable">0</property>
    </filter>
  </producer>
  <producer id="producer14" title="Anonymous Submission" in="00:00:00,000" out="01:28:15,367">
    <property name="length">01:28:15:12</property>
    <property name="eof">pause</property>
    <property name="resource">C:/Users/User/Videos/2021-01-15 23-25-09.mp4</property>
    <property name="audio_index">1</property>
    <property name="video_index">0</property>
    <property name="mute_on_pause">0</property>
    <property name="mlt_service">avformat-novalidate</property>
    <property name="seekable">1</property>
    <property name="aspect_ratio">1</property>
    <property name="shotcut:hash">930de6b08857e5fe9700e5dd50299c9a</property>
    <property name="ignore_points">0</property>
    <property name="shotcut:caption">2021-01-15 23-25-09.mp4</property>
    <property name="shotcut:detail">C:\Users\User\Videos\2021-01-15 23-25-09.mp4</property>
    <property name="shotcut:skipConvert">1</property>
    <property name="global_feed">1</property>
    <property name="xml">was here</property>
    <filter id="filter26" in="00:35:32,667" out="00:35:36,400">
      <property name="background">colour:0</property>
      <property name="mlt_service">affine</property>
      <property name="shotcut:filter">affineSizePosition</property>
      <property name="transition.fill">1</property>
      <property name="transition.distort">0</property>
      <property name="transition.rect">-1193 -1049 3532 1990 1</property>
      <property name="transition.valign">top</property>
      <property name="transition.halign">left</property>
      <property name="shotcut:animIn">00:00:00,000</property>
      <property name="shotcut:animOut">00:00:00,000</property>
      <property name="transition.threads">0</property>
      <property name="disable">0</property>
    </filter>
    <filter id="filter27" in="00:35:32,667" out="00:35:36,400">
      <property name="background">colour:0</property>
      <property name="mlt_service">affine</property>
      <property name="shotcut:filter">affineRotate</property>
      <property name="transition.fix_rotate_x">0</property>
      <property name="transition.scale_x">1</property>
      <property name="transition.ox">00:00:00,000=0;00:00:01,100=181;00:00:01,133=194;00:00:01,633=20;00:00:02,300=408;00:00:02,967=328;00:00:03,567=676</property>
      <property name="transition.oy">0</property>
      <property name="transition.threads">0</property>
    </filter>
  </producer>
  <producer id="producer15" title="Anonymous Submission" in="00:00:00,000" out="01:28:15,367">
    <property name="length">01:28:15:12</property>
    <property name="eof">pause</property>
    <property name="resource">C:/Users/User/Videos/2021-01-15 23-25-09.mp4</property>
    <property name="audio_index">1</property>
    <property name="video_index">0</property>
    <property name="mute_on_pause">0</property>
    <property name="mlt_service">avformat-novalidate</property>
    <property name="seekable">1</property>
    <property name="aspect_ratio">1</property>
    <property name="shotcut:hash">930de6b08857e5fe9700e5dd50299c9a</property>
    <property name="ignore_points">0</property>
    <property name="shotcut:caption">2021-01-15 23-25-09.mp4</property>
    <property name="shotcut:detail">C:\Users\User\Videos\2021-01-15 23-25-09.mp4</property>
    <property name="shotcut:skipConvert">1</property>
    <property name="global_feed">1</property>
    <property name="xml">was here</property>
    <filter id="filter28" in="00:35:36,433" out="00:35:45,500">
      <property name="background">colour:0</property>
      <property name="mlt_service">affine</property>
      <property name="shotcut:filter">affineSizePosition</property>
      <property name="transition.fill">1</property>
      <property name="transition.distort">0</property>
      <property name="transition.rect">-1193 -1049 3532 1990 1</property>
      <property name="transition.valign">top</property>
      <property name="transition.halign">left</property>
      <property name="shotcut:animIn">00:00:00,000</property>
      <property name="shotcut:animOut">00:00:00,000</property>
      <property name="transition.threads">0</property>
      <property name="disable">0</property>
    </filter>
  </producer>
  <producer id="producer16" title="Anonymous Submission" in="00:00:00,000" out="01:28:15,367">
    <property name="length">01:28:15:12</property>
    <property name="eof">pause</property>
    <property name="resource">C:/Users/User/Videos/2021-01-15 23-25-09.mp4</property>
    <property name="audio_index">1</property>
    <property name="video_index">0</property>
    <property name="mute_on_pause">0</property>
    <property name="mlt_service">avformat-novalidate</property>
    <property name="seekable">1</property>
    <property name="aspect_ratio">1</property>
    <property name="shotcut:hash">930de6b08857e5fe9700e5dd50299c9a</property>
    <property name="ignore_points">0</property>
    <property name="shotcut:caption">2021-01-15 23-25-09.mp4</property>
    <property name="shotcut:detail">C:\Users\User\Videos\2021-01-15 23-25-09.mp4</property>
    <property name="shotcut:skipConvert">1</property>
    <property name="global_feed">1</property>
    <property name="xml">was here</property>
    <filter id="filter29" in="00:35:45,533" out="00:35:46,867">
      <property name="background">colour:0</property>
      <property name="mlt_service">affine</property>
      <property name="shotcut:filter">affineSizePosition</property>
      <property name="transition.fill">1</property>
      <property name="transition.distort">0</property>
      <property name="transition.rect">-1193 -1049 3532 1990 1</property>
      <property name="transition.valign">top</property>
      <property name="transition.halign">left</property>
      <property name="shotcut:animIn">00:00:00,000</property>
      <property name="shotcut:animOut">00:00:00,000</property>
      <property name="transition.threads">0</property>
      <property name="disable">0</property>
    </filter>
    <filter id="filter30" in="00:35:45,533" out="00:35:46,867">
      <property name="argument">=|=|=|=|=|=|=|=|=|=|=|=|=|=|=|=|=|=|=|=|=|=|=|=|=|=|=|=|=|=|=|=|=|=|=|=|==|=|=|</property>
      <property name="geometry">4 -556 1920 1080 1</property>
      <property name="family">Verdana</property>
      <property name="size">21</property>
      <property name="weight">500</property>
      <property name="style">normal</property>
      <property name="fgcolour">#ffffffff</property>
      <property name="bgcolour">#00000000</property>
      <property name="olcolour">#ff000000</property>
      <property name="pad">0</property>
      <property name="halign">center</property>
      <property name="valign">bottom</property>
      <property name="outline">0</property>
      <property name="mlt_service">dynamictext</property>
      <property name="shotcut:filter">dynamicText</property>
      <property name="shotcut:usePointSize">1</property>
      <property name="shotcut:animIn">00:00:00,000</property>
      <property name="shotcut:animOut">00:00:00,000</property>
      <property name="shotcut:pointSize">16</property>
    </filter>
  </producer>
  <producer id="producer17" title="Anonymous Submission" in="00:00:00,000" out="01:28:15,367">
    <property name="length">01:28:15:12</property>
    <property name="eof">pause</property>
    <property name="resource">C:/Users/User/Videos/2021-01-15 23-25-09.mp4</property>
    <property name="audio_index">1</property>
    <property name="video_index">0</property>
    <property name="mute_on_pause">0</property>
    <property name="mlt_service">avformat-novalidate</property>
    <property name="seekable">1</property>
    <property name="aspect_ratio">1</property>
    <property name="shotcut:hash">930de6b08857e5fe9700e5dd50299c9a</property>
    <property name="ignore_points">0</property>
    <property name="shotcut:caption">2021-01-15 23-25-09.mp4</property>
    <property name="shotcut:detail">C:\Users\User\Videos\2021-01-15 23-25-09.mp4</property>
    <property name="shotcut:skipConvert">1</property>
    <property name="global_feed">1</property>
    <property name="xml">was here</property>
    <filter id="filter31" in="00:35:46,900" out="00:35:55,733">
      <property name="background">colour:0</property>
      <property name="mlt_service">affine</property>
      <property name="shotcut:filter">affineSizePosition</property>
      <property name="transition.fill">1</property>
      <property name="transition.distort">0</property>
      <property name="transition.rect">-1193 -1049 3532 1990 1</property>
      <property name="transition.valign">top</property>
      <property name="transition.halign">left</property>
      <property name="shotcut:animIn">00:00:00,000</property>
      <property name="shotcut:animOut">00:00:00,000</property>
      <property name="transition.threads">0</property>
      <property name="disable">0</property>
    </filter>
  </producer>
  <producer id="producer18" title="Anonymous Submission" in="00:00:00,000" out="01:28:15,367">
    <property name="length">01:28:15:12</property>
    <property name="eof">pause</property>
    <property name="resource">C:/Users/User/Videos/2021-01-15 23-25-09.mp4</property>
    <property name="audio_index">1</property>
    <property name="video_index">0</property>
    <property name="mute_on_pause">0</property>
    <property name="mlt_service">avformat-novalidate</property>
    <property name="seekable">1</property>
    <property name="aspect_ratio">1</property>
    <property name="shotcut:hash">930de6b08857e5fe9700e5dd50299c9a</property>
    <property name="ignore_points">0</property>
    <property name="shotcut:caption">2021-01-15 23-25-09.mp4</property>
    <property name="shotcut:detail">C:\Users\User\Videos\2021-01-15 23-25-09.mp4</property>
    <property name="shotcut:skipConvert">1</property>
    <property name="global_feed">1</property>
    <property name="xml">was here</property>
    <filter id="filter32" in="00:36:46,033" out="00:37:04,967">
      <property name="background">colour:0</property>
      <property name="mlt_service">affine</property>
      <property name="shotcut:filter">affineSizePosition</property>
      <property name="transition.fill">1</property>
      <property name="transition.distort">0</property>
      <property name="transition.rect">-1193 -1049 3532 1990 1</property>
      <property name="transition.valign">top</property>
      <property name="transition.halign">left</property>
      <property name="shotcut:animIn">00:00:00,000</property>
      <property name="shotcut:animOut">00:00:00,000</property>
      <property name="transition.threads">0</property>
      <property name="disable">0</property>
    </filter>
  </producer>
  <producer id="producer19" title="Anonymous Submission" in="00:00:00,000" out="01:28:15,367">
    <property name="length">01:28:15:12</property>
    <property name="eof">pause</property>
    <property name="resource">C:/Users/User/Videos/2021-01-15 23-25-09.mp4</property>
    <property name="audio_index">1</property>
    <property name="video_index">0</property>
    <property name="mute_on_pause">0</property>
    <property name="mlt_service">avformat-novalidate</property>
    <property name="seekable">1</property>
    <property name="aspect_ratio">1</property>
    <property name="shotcut:hash">930de6b08857e5fe9700e5dd50299c9a</property>
    <property name="ignore_points">0</property>
    <property name="shotcut:caption">2021-01-15 23-25-09.mp4</property>
    <property name="shotcut:detail">C:\Users\User\Videos\2021-01-15 23-25-09.mp4</property>
    <property name="shotcut:skipConvert">1</property>
    <property name="global_feed">1</property>
    <property name="xml">was here</property>
    <filter id="filter33" in="00:37:05,000" out="00:37:18,567">
      <property name="background">colour:0</property>
      <property name="mlt_service">affine</property>
      <property name="shotcut:filter">affineSizePosition</property>
      <property name="transition.fill">1</property>
      <property name="transition.distort">0</property>
      <property name="transition.rect">-1193 -1049 3532 1990 1</property>
      <property name="transition.valign">top</property>
      <property name="transition.halign">left</property>
      <property name="shotcut:animIn">00:00:00,000</property>
      <property name="shotcut:animOut">00:00:00,000</property>
      <property name="transition.threads">0</property>
      <property name="disable">0</property>
    </filter>
    <filter id="filter34" in="00:37:05,000" out="00:37:18,567">
      <property name="background">colour:0</property>
      <property name="mlt_service">affine</property>
      <property name="shotcut:filter">affineRotate</property>
      <property name="transition.fix_rotate_x">00:00:00,700=-270,9;00:00:07,433=-270;00:00:07,667=0</property>
      <property name="transition.scale_x">1</property>
      <property name="transition.ox">0</property>
      <property name="transition.oy">0</property>
      <property name="transition.threads">0</property>
      <property name="shotcut:animIn">00:00:00,000</property>
      <property name="shotcut:animOut">00:00:00,000</property>
    </filter>
  </producer>
  <producer id="producer20" title="Anonymous Submission" in="00:00:00,000" out="01:28:15,367">
    <property name="length">01:28:15:12</property>
    <property name="eof">pause</property>
    <property name="resource">C:/Users/User/Videos/2021-01-15 23-25-09.mp4</property>
    <property name="audio_index">1</property>
    <property name="video_index">0</property>
    <property name="mute_on_pause">0</property>
    <property name="mlt_service">avformat-novalidate</property>
    <property name="seekable">1</property>
    <property name="aspect_ratio">1</property>
    <property name="shotcut:hash">930de6b08857e5fe9700e5dd50299c9a</property>
    <property name="ignore_points">0</property>
    <property name="shotcut:caption">2021-01-15 23-25-09.mp4</property>
    <property name="shotcut:detail">C:\Users\User\Videos\2021-01-15 23-25-09.mp4</property>
    <property name="shotcut:skipConvert">1</property>
    <property name="global_feed">1</property>
    <property name="xml">was here</property>
    <filter id="filter35" in="00:37:18,600" out="00:37:26,333">
      <property name="background">colour:0</property>
      <property name="mlt_service">affine</property>
      <property name="shotcut:filter">affineSizePosition</property>
      <property name="transition.fill">1</property>
      <property name="transition.distort">0</property>
      <property name="transition.rect">-1193 -1049 3532 1990 1</property>
      <property name="transition.valign">top</property>
      <property name="transition.halign">left</property>
      <property name="shotcut:animIn">00:00:00,000</property>
      <property name="shotcut:animOut">00:00:00,000</property>
      <property name="transition.threads">0</property>
      <property name="disable">0</property>
    </filter>
  </producer>
  <producer id="producer21" title="Anonymous Submission" in="00:00:00,000" out="01:28:15,367">
    <property name="length">01:28:15:12</property>
    <property name="eof">pause</property>
    <property name="resource">C:/Users/User/Videos/2021-01-15 23-25-09.mp4</property>
    <property name="audio_index">1</property>
    <property name="video_index">0</property>
    <property name="mute_on_pause">0</property>
    <property name="mlt_service">avformat-novalidate</property>
    <property name="seekable">1</property>
    <property name="aspect_ratio">1</property>
    <property name="shotcut:hash">930de6b08857e5fe9700e5dd50299c9a</property>
    <property name="ignore_points">0</property>
    <property name="shotcut:caption">2021-01-15 23-25-09.mp4</property>
    <property name="shotcut:detail">C:\Users\User\Videos\2021-01-15 23-25-09.mp4</property>
    <property name="shotcut:skipConvert">1</property>
    <property name="global_feed">1</property>
    <property name="xml">was here</property>
    <filter id="filter36" in="00:37:56,100" out="00:38:02,167">
      <property name="background">colour:0</property>
      <property name="mlt_service">affine</property>
      <property name="shotcut:filter">affineSizePosition</property>
      <property name="transition.fill">1</property>
      <property name="transition.distort">0</property>
      <property name="transition.rect">-1193 -1049 3532 1990 1</property>
      <property name="transition.valign">top</property>
      <property name="transition.halign">left</property>
      <property name="shotcut:animIn">00:00:00,000</property>
      <property name="shotcut:animOut">00:00:00,000</property>
      <property name="transition.threads">0</property>
      <property name="disable">0</property>
    </filter>
  </producer>
  <producer id="producer22" title="Anonymous Submission" in="00:00:00,000" out="01:28:15,367">
    <property name="length">01:28:15:12</property>
    <property name="eof">pause</property>
    <property name="resource">C:/Users/User/Videos/2021-01-15 23-25-09.mp4</property>
    <property name="audio_index">1</property>
    <property name="video_index">0</property>
    <property name="mute_on_pause">0</property>
    <property name="mlt_service">avformat-novalidate</property>
    <property name="seekable">1</property>
    <property name="aspect_ratio">1</property>
    <property name="shotcut:hash">930de6b08857e5fe9700e5dd50299c9a</property>
    <property name="ignore_points">0</property>
    <property name="shotcut:caption">2021-01-15 23-25-09.mp4</property>
    <property name="shotcut:detail">C:\Users\User\Videos\2021-01-15 23-25-09.mp4</property>
    <property name="shotcut:skipConvert">1</property>
    <property name="global_feed">1</property>
    <property name="xml">was here</property>
    <filter id="filter37" in="00:38:02,200" out="00:38:13,767">
      <property name="background">colour:0</property>
      <property name="mlt_service">affine</property>
      <property name="shotcut:filter">affineSizePosition</property>
      <property name="transition.fill">1</property>
      <property name="transition.distort">0</property>
      <property name="transition.rect">-1193 -1049 3532 1990 1</property>
      <property name="transition.valign">top</property>
      <property name="transition.halign">left</property>
      <property name="shotcut:animIn">00:00:00,000</property>
      <property name="shotcut:animOut">00:00:00,000</property>
      <property name="transition.threads">0</property>
      <property name="disable">0</property>
    </filter>
    <filter id="filter38" in="00:38:02,200" out="00:38:13,767">
      <property name="background">colour:0</property>
      <property name="mlt_service">affine</property>
      <property name="shotcut:filter">affineRotate</property>
      <property name="transition.fix_rotate_x">0</property>
      <property name="transition.scale_x">00:00:00,000=0,833333;00:00:02,400=0,714286;00:00:02,433=0,666667;00:00:04,567=50;00:00:04,600=0,5;00:00:07,533=1000;00:00:07,567=0,333333</property>
      <property name="transition.ox">0</property>
      <property name="transition.oy">-100</property>
      <property name="transition.threads">0</property>
      <property name="shotcut:animIn">00:00:00,000</property>
      <property name="shotcut:animOut">00:00:00,000</property>
      <property name="transition.scale_y">00:00:00,000=0,833333;00:00:02,400=0,714286;00:00:02,433=0,666667;00:00:04,567=50;00:00:04,600=0,5;00:00:07,533=1000;00:00:07,567=0,333333</property>
    </filter>
  </producer>
  <producer id="producer23" title="Anonymous Submission" in="00:00:00,000" out="01:28:15,367">
    <property name="length">01:28:15:12</property>
    <property name="eof">pause</property>
    <property name="resource">C:/Users/User/Videos/2021-01-15 23-25-09.mp4</property>
    <property name="audio_index">1</property>
    <property name="video_index">0</property>
    <property name="mute_on_pause">0</property>
    <property name="mlt_service">avformat-novalidate</property>
    <property name="seekable">1</property>
    <property name="aspect_ratio">1</property>
    <property name="shotcut:hash">930de6b08857e5fe9700e5dd50299c9a</property>
    <property name="ignore_points">0</property>
    <property name="shotcut:caption">2021-01-15 23-25-09.mp4</property>
    <property name="shotcut:detail">C:\Users\User\Videos\2021-01-15 23-25-09.mp4</property>
    <property name="shotcut:skipConvert">1</property>
    <property name="global_feed">1</property>
    <property name="xml">was here</property>
    <filter id="filter39" in="00:38:13,800" out="00:38:54,100">
      <property name="background">colour:0</property>
      <property name="mlt_service">affine</property>
      <property name="shotcut:filter">affineSizePosition</property>
      <property name="transition.fill">1</property>
      <property name="transition.distort">0</property>
      <property name="transition.rect">-1193 -1049 3532 1990 1</property>
      <property name="transition.valign">top</property>
      <property name="transition.halign">left</property>
      <property name="shotcut:animIn">00:00:00,000</property>
      <property name="shotcut:animOut">00:00:00,000</property>
      <property name="transition.threads">0</property>
      <property name="disable">0</property>
    </filter>
  </producer>
  <producer id="producer24" title="Anonymous Submission" in="00:00:00,000" out="01:28:15,367">
    <property name="length">01:28:15:12</property>
    <property name="eof">pause</property>
    <property name="resource">C:/Users/User/Videos/2021-01-15 23-25-09.mp4</property>
    <property name="audio_index">1</property>
    <property name="video_index">0</property>
    <property name="mute_on_pause">0</property>
    <property name="mlt_service">avformat-novalidate</property>
    <property name="seekable">1</property>
    <property name="aspect_ratio">1</property>
    <property name="shotcut:hash">930de6b08857e5fe9700e5dd50299c9a</property>
    <property name="ignore_points">0</property>
    <property name="shotcut:caption">2021-01-15 23-25-09.mp4</property>
    <property name="shotcut:detail">C:\Users\User\Videos\2021-01-15 23-25-09.mp4</property>
    <property name="shotcut:skipConvert">1</property>
    <property name="global_feed">1</property>
    <property name="xml">was here</property>
    <filter id="filter40" in="00:39:05,067" out="00:39:08,367">
      <property name="background">colour:0</property>
      <property name="mlt_service">affine</property>
      <property name="shotcut:filter">affineSizePosition</property>
      <property name="transition.fill">1</property>
      <property name="transition.distort">0</property>
      <property name="transition.rect">-1193 -1049 3532 1990 1</property>
      <property name="transition.valign">top</property>
      <property name="transition.halign">left</property>
      <property name="shotcut:animIn">00:00:00,000</property>
      <property name="shotcut:animOut">00:00:00,000</property>
      <property name="transition.threads">0</property>
      <property name="disable">0</property>
    </filter>
  </producer>
  <producer id="producer25" title="Anonymous Submission" in="00:00:00,000" out="01:28:15,367">
    <property name="length">01:28:15:12</property>
    <property name="eof">pause</property>
    <property name="resource">C:/Users/User/Videos/2021-01-15 23-25-09.mp4</property>
    <property name="audio_index">1</property>
    <property name="video_index">0</property>
    <property name="mute_on_pause">0</property>
    <property name="mlt_service">avformat-novalidate</property>
    <property name="seekable">1</property>
    <property name="aspect_ratio">1</property>
    <property name="shotcut:hash">930de6b08857e5fe9700e5dd50299c9a</property>
    <property name="ignore_points">0</property>
    <property name="shotcut:caption">2021-01-15 23-25-09.mp4</property>
    <property name="shotcut:detail">C:\Users\User\Videos\2021-01-15 23-25-09.mp4</property>
    <property name="shotcut:skipConvert">1</property>
    <property name="global_feed">1</property>
    <property name="xml">was here</property>
    <filter id="filter41" in="00:39:08,400" out="00:39:09,033">
      <property name="background">colour:0</property>
      <property name="mlt_service">affine</property>
      <property name="shotcut:filter">affineSizePosition</property>
      <property name="transition.fill">1</property>
      <property name="transition.distort">0</property>
      <property name="transition.rect">-1193 -1049 3532 1990 1</property>
      <property name="transition.valign">top</property>
      <property name="transition.halign">left</property>
      <property name="shotcut:animIn">00:00:00,000</property>
      <property name="shotcut:animOut">00:00:00,000</property>
      <property name="transition.threads">0</property>
      <property name="disable">0</property>
    </filter>
    <filter id="filter42" in="00:39:08,400" out="00:39:09,033">
      <property name="argument">0</property>
      <property name="geometry">-170 -197 1920 1080 1</property>
      <property name="family">Verdana</property>
      <property name="size">1080</property>
      <property name="weight">500</property>
      <property name="style">normal</property>
      <property name="fgcolour">#ffffffff</property>
      <property name="bgcolour">#00000000</property>
      <property name="olcolour">#ff000000</property>
      <property name="pad">0</property>
      <property name="halign">center</property>
      <property name="valign">bottom</property>
      <property name="outline">0</property>
      <property name="mlt_service">dynamictext</property>
      <property name="shotcut:filter">dynamicText</property>
      <property name="shotcut:usePointSize">0</property>
      <property name="shotcut:animIn">00:00:00,000</property>
      <property name="shotcut:animOut">00:00:00,000</property>
    </filter>
  </producer>
  <producer id="producer26" title="Anonymous Submission" in="00:00:00,000" out="01:28:15,367">
    <property name="length">01:28:15:12</property>
    <property name="eof">pause</property>
    <property name="resource">C:/Users/User/Videos/2021-01-15 23-25-09.mp4</property>
    <property name="audio_index">1</property>
    <property name="video_index">0</property>
    <property name="mute_on_pause">0</property>
    <property name="mlt_service">avformat-novalidate</property>
    <property name="seekable">1</property>
    <property name="aspect_ratio">1</property>
    <property name="shotcut:hash">930de6b08857e5fe9700e5dd50299c9a</property>
    <property name="ignore_points">0</property>
    <property name="shotcut:caption">2021-01-15 23-25-09.mp4</property>
    <property name="shotcut:detail">C:\Users\User\Videos\2021-01-15 23-25-09.mp4</property>
    <property name="shotcut:skipConvert">1</property>
    <property name="global_feed">1</property>
    <property name="xml">was here</property>
    <filter id="filter43" in="00:39:09,067" out="00:39:58,133">
      <property name="background">colour:0</property>
      <property name="mlt_service">affine</property>
      <property name="shotcut:filter">affineSizePosition</property>
      <property name="transition.fill">1</property>
      <property name="transition.distort">0</property>
      <property name="transition.rect">-1193 -1049 3532 1990 1</property>
      <property name="transition.valign">top</property>
      <property name="transition.halign">left</property>
      <property name="shotcut:animIn">00:00:00,000</property>
      <property name="shotcut:animOut">00:00:00,000</property>
      <property name="transition.threads">0</property>
      <property name="disable">0</property>
    </filter>
  </producer>
  <producer id="producer27" title="Anonymous Submission" in="00:00:00,000" out="01:28:15,367">
    <property name="length">01:28:15:12</property>
    <property name="eof">pause</property>
    <property name="resource">C:/Users/User/Videos/2021-01-15 23-25-09.mp4</property>
    <property name="audio_index">1</property>
    <property name="video_index">0</property>
    <property name="mute_on_pause">0</property>
    <property name="mlt_service">avformat-novalidate</property>
    <property name="seekable">1</property>
    <property name="aspect_ratio">1</property>
    <property name="shotcut:hash">930de6b08857e5fe9700e5dd50299c9a</property>
    <property name="ignore_points">0</property>
    <property name="shotcut:caption">2021-01-15 23-25-09.mp4</property>
    <property name="shotcut:detail">C:\Users\User\Videos\2021-01-15 23-25-09.mp4</property>
    <property name="shotcut:skipConvert">1</property>
    <property name="global_feed">1</property>
    <property name="xml">was here</property>
    <filter id="filter44" in="00:39:58,167" out="00:40:38,200">
      <property name="background">colour:0</property>
      <property name="mlt_service">affine</property>
      <property name="shotcut:filter">affineSizePosition</property>
      <property name="transition.fill">1</property>
      <property name="transition.distort">0</property>
      <property name="transition.rect">-1193 -1049 3532 1990 1</property>
      <property name="transition.valign">top</property>
      <property name="transition.halign">left</property>
      <property name="shotcut:animIn">00:00:00,000</property>
      <property name="shotcut:animOut">00:00:00,000</property>
      <property name="transition.threads">0</property>
      <property name="disable">0</property>
    </filter>
    <filter id="filter45" in="00:39:58,167" out="00:40:38,200">
      <property name="background">colour:0</property>
      <property name="mlt_service">affine</property>
      <property name="shotcut:filter">affineRotate</property>
      <property name="transition.fix_rotate_x">00:00:00,000=0;00:00:39,667=5</property>
      <property name="transition.scale_x">00:00:00,000=0,948767;00:00:39,700=0,866551</property>
      <property name="transition.ox">-0</property>
      <property name="transition.oy">-76</property>
      <property name="transition.threads">0</property>
      <property name="transition.scale_y">00:00:00,000=0,948767;00:00:39,700=0,866551</property>
      <property name="shotcut:animIn">00:00:00,000</property>
      <property name="shotcut:animOut">00:00:00,000</property>
    </filter>
    <filter id="filter46" in="00:39:58,167" out="00:40:38,200">
      <property name="argument">Ыдло страдает из-за балабола пикт в цвете ~М2 Терра</property>
      <property name="geometry">10 -99 1920 1080 1</property>
      <property name="family">Impact</property>
      <property name="size">64</property>
      <property name="weight">500</property>
      <property name="style">normal</property>
      <property name="fgcolour">#ffffffff</property>
      <property name="bgcolour">#00000000</property>
      <property name="olcolour">#ff000000</property>
      <property name="pad">0</property>
      <property name="halign">center</property>
      <property name="valign">bottom</property>
      <property name="outline">0</property>
      <property name="mlt_service">dynamictext</property>
      <property name="shotcut:filter">dynamicText</property>
      <property name="shotcut:usePointSize">1</property>
      <property name="shotcut:animIn">00:00:00,000</property>
      <property name="shotcut:animOut">00:00:00,000</property>
      <property name="shotcut:pointSize">48</property>
    </filter>
    <filter id="filter47" in="00:39:58,167" out="00:40:38,200">
      <property name="window">75</property>
      <property name="max_gain">20dB</property>
      <property name="level">00:00:00,067=0;00:00:39,767=16,8</property>
      <property name="mlt_service">volume</property>
      <property name="shotcut:animIn">00:00:00,000</property>
      <property name="shotcut:animOut">00:00:00,000</property>
    </filter>
  </producer>
  <producer id="producer28" title="Anonymous Submission" in="00:00:00,000" out="01:28:15,367">
    <property name="length">01:28:15:12</property>
    <property name="eof">pause</property>
    <property name="resource">C:/Users/User/Videos/2021-01-15 23-25-09.mp4</property>
    <property name="audio_index">1</property>
    <property name="video_index">0</property>
    <property name="mute_on_pause">0</property>
    <property name="mlt_service">avformat-novalidate</property>
    <property name="seekable">1</property>
    <property name="aspect_ratio">1</property>
    <property name="shotcut:hash">930de6b08857e5fe9700e5dd50299c9a</property>
    <property name="ignore_points">0</property>
    <property name="shotcut:caption">2021-01-15 23-25-09.mp4</property>
    <property name="shotcut:detail">C:\Users\User\Videos\2021-01-15 23-25-09.mp4</property>
    <property name="shotcut:skipConvert">1</property>
    <property name="global_feed">1</property>
    <property name="xml">was here</property>
    <filter id="filter48" in="00:40:38,233" out="00:40:53,700">
      <property name="background">colour:0</property>
      <property name="mlt_service">affine</property>
      <property name="shotcut:filter">affineSizePosition</property>
      <property name="transition.fill">1</property>
      <property name="transition.distort">0</property>
      <property name="transition.rect">-1193 -1049 3532 1990 1</property>
      <property name="transition.valign">top</property>
      <property name="transition.halign">left</property>
      <property name="shotcut:animIn">00:00:00,000</property>
      <property name="shotcut:animOut">00:00:00,000</property>
      <property name="transition.threads">0</property>
      <property name="disable">0</property>
    </filter>
  </producer>
  <producer id="producer29" title="Anonymous Submission" in="00:00:00,000" out="01:28:15,367">
    <property name="length">01:28:15:12</property>
    <property name="eof">pause</property>
    <property name="resource">C:/Users/User/Videos/2021-01-15 23-25-09.mp4</property>
    <property name="audio_index">1</property>
    <property name="video_index">0</property>
    <property name="mute_on_pause">0</property>
    <property name="mlt_service">avformat-novalidate</property>
    <property name="seekable">1</property>
    <property name="aspect_ratio">1</property>
    <property name="shotcut:hash">930de6b08857e5fe9700e5dd50299c9a</property>
    <property name="ignore_points">0</property>
    <property name="shotcut:caption">2021-01-15 23-25-09.mp4</property>
    <property name="shotcut:detail">C:\Users\User\Videos\2021-01-15 23-25-09.mp4</property>
    <property name="shotcut:skipConvert">1</property>
    <property name="global_feed">1</property>
    <property name="xml">was here</property>
    <filter id="filter49" in="00:40:53,733" out="00:41:05,667">
      <property name="background">colour:0</property>
      <property name="mlt_service">affine</property>
      <property name="shotcut:filter">affineSizePosition</property>
      <property name="transition.fill">1</property>
      <property name="transition.distort">0</property>
      <property name="transition.rect">-1193 -1049 3532 1990 1</property>
      <property name="transition.valign">top</property>
      <property name="transition.halign">left</property>
      <property name="shotcut:animIn">00:00:00,000</property>
      <property name="shotcut:animOut">00:00:00,000</property>
      <property name="transition.threads">0</property>
      <property name="disable">0</property>
    </filter>
    <filter id="filter50" in="00:40:53,733" out="00:41:05,667">
      <property name="argument">-----------------------------------------------
|   |    |     |     |    |      |      |      |     |</property>
      <property name="geometry">00:00:01,300=-225 -102 1920 1080 1;00:00:06,100=-225 -102 1920 1080 1;00:00:06,133=-196 -125 1920 1080 1;00:00:06,533=-162 -77 1920 1080 1;00:00:07,000=-120 -117 1920 1080 1;00:00:07,400=-86 -79 1920 1080 1;00:00:07,800=-34 -115 1920 1080 1;00:00:08,200=0 -70 1920 1080 1;00:00:08,633=61 -102 1920 1080 1;00:00:09,033=88 -66 1920 1080 1;00:00:09,367=141 -96 1920 1080 1;00:00:09,767=191 -66 1920 1080 1;00:00:10,167=243 -98 1920 1080 1;00:00:10,567=262 -66 1920 1080 1;00:00:10,900=321 -110 1920 1080 1;00:00:11,233=388 -71 1920 1080 1;00:00:11,600=474 -121 1920 1080 1;00:00:11,833=674 -71 1920 1080 1</property>
      <property name="family">Impact</property>
      <property name="size">64</property>
      <property name="weight">500</property>
      <property name="style">normal</property>
      <property name="fgcolour">#ffffffff</property>
      <property name="bgcolour">#00000000</property>
      <property name="olcolour">#ff000000</property>
      <property name="pad">0</property>
      <property name="halign">center</property>
      <property name="valign">bottom</property>
      <property name="outline">0</property>
      <property name="mlt_service">dynamictext</property>
      <property name="shotcut:filter">dynamicText</property>
      <property name="shotcut:usePointSize">1</property>
      <property name="shotcut:animIn">00:00:00,000</property>
      <property name="shotcut:animOut">00:00:00,000</property>
      <property name="shotcut:pointSize">48</property>
    </filter>
    <filter id="filter51" in="00:40:53,733" out="00:41:05,667">
      <property name="argument">~~~~~~~~~~~~~~~~~~~~~~~~~~~~~~~</property>
      <property name="geometry">00:00:00,200=-2 59 1920 1080 1;00:00:01,300=-10 -42 1920 1080 1</property>
      <property name="family">Verdana</property>
      <property name="size">1080</property>
      <property name="weight">500</property>
      <property name="style">normal</property>
      <property name="fgcolour">#ffffffff</property>
      <property name="bgcolour">#00000000</property>
      <property name="olcolour">#ff000000</property>
      <property name="pad">0</property>
      <property name="halign">center</property>
      <property name="valign">bottom</property>
      <property name="outline">0</property>
      <property name="mlt_service">dynamictext</property>
      <property name="shotcut:filter">dynamicText</property>
      <property name="shotcut:usePointSize">0</property>
      <property name="shotcut:animIn">00:00:00,000</property>
      <property name="shotcut:animOut">00:00:00,000</property>
    </filter>
  </producer>
  <producer id="producer30" title="Anonymous Submission" in="00:00:00,000" out="01:28:15,367">
    <property name="length">01:28:15:12</property>
    <property name="eof">pause</property>
    <property name="resource">C:/Users/User/Videos/2021-01-15 23-25-09.mp4</property>
    <property name="audio_index">1</property>
    <property name="video_index">0</property>
    <property name="mute_on_pause">0</property>
    <property name="mlt_service">avformat-novalidate</property>
    <property name="seekable">1</property>
    <property name="aspect_ratio">1</property>
    <property name="shotcut:hash">930de6b08857e5fe9700e5dd50299c9a</property>
    <property name="ignore_points">0</property>
    <property name="shotcut:caption">2021-01-15 23-25-09.mp4</property>
    <property name="shotcut:detail">C:\Users\User\Videos\2021-01-15 23-25-09.mp4</property>
    <property name="shotcut:skipConvert">1</property>
    <property name="global_feed">1</property>
    <property name="xml">was here</property>
    <filter id="filter52" in="00:41:05,700" out="00:41:08,767">
      <property name="background">colour:0</property>
      <property name="mlt_service">affine</property>
      <property name="shotcut:filter">affineSizePosition</property>
      <property name="transition.fill">1</property>
      <property name="transition.distort">0</property>
      <property name="transition.rect">-1193 -1049 3532 1990 1</property>
      <property name="transition.valign">top</property>
      <property name="transition.halign">left</property>
      <property name="shotcut:animIn">00:00:00,000</property>
      <property name="shotcut:animOut">00:00:00,000</property>
      <property name="transition.threads">0</property>
      <property name="disable">0</property>
    </filter>
    <filter id="filter53" in="00:41:05,700" out="00:41:08,767">
      <property name="background">colour:0</property>
      <property name="mlt_service">affine</property>
      <property name="shotcut:filter">affineRotate</property>
      <property name="transition.fix_rotate_x">0</property>
      <property name="transition.scale_x">00:00:00,233=1;00:00:02,833=5,95238</property>
      <property name="transition.ox">0</property>
      <property name="transition.oy">0</property>
      <property name="transition.threads">0</property>
      <property name="shotcut:animIn">00:00:00,000</property>
      <property name="shotcut:animOut">00:00:00,000</property>
      <property name="transition.scale_y">00:00:00,233=1;00:00:02,833=5,95238</property>
    </filter>
  </producer>
  <producer id="producer31" title="Anonymous Submission" in="00:00:00,000" out="01:28:15,367">
    <property name="length">01:28:15:12</property>
    <property name="eof">pause</property>
    <property name="resource">C:/Users/User/Videos/2021-01-15 23-25-09.mp4</property>
    <property name="audio_index">1</property>
    <property name="video_index">0</property>
    <property name="mute_on_pause">0</property>
    <property name="mlt_service">avformat-novalidate</property>
    <property name="seekable">1</property>
    <property name="aspect_ratio">1</property>
    <property name="shotcut:hash">930de6b08857e5fe9700e5dd50299c9a</property>
    <property name="ignore_points">0</property>
    <property name="shotcut:caption">2021-01-15 23-25-09.mp4</property>
    <property name="shotcut:detail">C:\Users\User\Videos\2021-01-15 23-25-09.mp4</property>
    <property name="shotcut:skipConvert">1</property>
    <property name="global_feed">1</property>
    <property name="xml">was here</property>
    <filter id="filter54" in="00:41:15,433" out="00:42:16,300">
      <property name="background">colour:0</property>
      <property name="mlt_service">affine</property>
      <property name="shotcut:filter">affineSizePosition</property>
      <property name="transition.fill">1</property>
      <property name="transition.distort">0</property>
      <property name="transition.rect">-1193 -1049 3532 1990 1</property>
      <property name="transition.valign">top</property>
      <property name="transition.halign">left</property>
      <property name="shotcut:animIn">00:00:00,000</property>
      <property name="shotcut:animOut">00:00:00,000</property>
      <property name="transition.threads">0</property>
      <property name="disable">0</property>
    </filter>
  </producer>
  <producer id="producer32" title="Anonymous Submission" in="00:00:00,000" out="01:28:15,367">
    <property name="length">01:28:15:12</property>
    <property name="eof">pause</property>
    <property name="resource">C:/Users/User/Videos/2021-01-15 23-25-09.mp4</property>
    <property name="audio_index">1</property>
    <property name="video_index">0</property>
    <property name="mute_on_pause">0</property>
    <property name="mlt_service">avformat-novalidate</property>
    <property name="seekable">1</property>
    <property name="aspect_ratio">1</property>
    <property name="shotcut:hash">930de6b08857e5fe9700e5dd50299c9a</property>
    <property name="ignore_points">0</property>
    <property name="shotcut:caption">2021-01-15 23-25-09.mp4</property>
    <property name="shotcut:detail">C:\Users\User\Videos\2021-01-15 23-25-09.mp4</property>
    <property name="shotcut:skipConvert">1</property>
    <property name="global_feed">1</property>
    <property name="xml">was here</property>
    <filter id="filter55" in="00:42:16,333" out="00:42:18,367">
      <property name="background">colour:0</property>
      <property name="mlt_service">affine</property>
      <property name="shotcut:filter">affineSizePosition</property>
      <property name="transition.fill">1</property>
      <property name="transition.distort">0</property>
      <property name="transition.rect">-1193 -1049 3532 1990 1</property>
      <property name="transition.valign">top</property>
      <property name="transition.halign">left</property>
      <property name="shotcut:animIn">00:00:00,000</property>
      <property name="shotcut:animOut">00:00:00,000</property>
      <property name="transition.threads">0</property>
      <property name="disable">0</property>
    </filter>
    <filter id="filter56" in="00:42:16,333" out="00:42:18,367">
      <property name="background">colour:0</property>
      <property name="mlt_service">affine</property>
      <property name="shotcut:filter">affineRotate</property>
      <property name="transition.fix_rotate_x">00:00:00,167=0;00:00:01,900=360</property>
      <property name="transition.scale_x">1</property>
      <property name="transition.ox">0</property>
      <property name="transition.oy">0</property>
      <property name="transition.threads">0</property>
      <property name="shotcut:animIn">00:00:00,000</property>
      <property name="shotcut:animOut">00:00:00,000</property>
    </filter>
  </producer>
  <producer id="producer33" title="Anonymous Submission" in="00:00:00,000" out="01:28:15,367">
    <property name="length">01:28:15:12</property>
    <property name="eof">pause</property>
    <property name="resource">C:/Users/User/Videos/2021-01-15 23-25-09.mp4</property>
    <property name="audio_index">1</property>
    <property name="video_index">0</property>
    <property name="mute_on_pause">0</property>
    <property name="mlt_service">avformat-novalidate</property>
    <property name="seekable">1</property>
    <property name="aspect_ratio">1</property>
    <property name="shotcut:hash">930de6b08857e5fe9700e5dd50299c9a</property>
    <property name="ignore_points">0</property>
    <property name="shotcut:caption">2021-01-15 23-25-09.mp4</property>
    <property name="shotcut:detail">C:\Users\User\Videos\2021-01-15 23-25-09.mp4</property>
    <property name="shotcut:skipConvert">1</property>
    <property name="global_feed">1</property>
    <property name="xml">was here</property>
    <filter id="filter57" in="00:42:18,400" out="00:42:21,800">
      <property name="background">colour:0</property>
      <property name="mlt_service">affine</property>
      <property name="shotcut:filter">affineSizePosition</property>
      <property name="transition.fill">1</property>
      <property name="transition.distort">0</property>
      <property name="transition.rect">-1193 -1049 3532 1990 1</property>
      <property name="transition.valign">top</property>
      <property name="transition.halign">left</property>
      <property name="shotcut:animIn">00:00:00,000</property>
      <property name="shotcut:animOut">00:00:00,000</property>
      <property name="transition.threads">0</property>
      <property name="disable">0</property>
    </filter>
  </producer>
  <producer id="producer34" title="Anonymous Submission" in="00:00:00,000" out="01:28:15,367">
    <property name="length">01:28:15:12</property>
    <property name="eof">pause</property>
    <property name="resource">C:/Users/User/Videos/2021-01-15 23-25-09.mp4</property>
    <property name="audio_index">1</property>
    <property name="video_index">0</property>
    <property name="mute_on_pause">0</property>
    <property name="mlt_service">avformat-novalidate</property>
    <property name="seekable">1</property>
    <property name="aspect_ratio">1</property>
    <property name="shotcut:hash">930de6b08857e5fe9700e5dd50299c9a</property>
    <property name="ignore_points">0</property>
    <property name="shotcut:caption">2021-01-15 23-25-09.mp4</property>
    <property name="shotcut:detail">C:\Users\User\Videos\2021-01-15 23-25-09.mp4</property>
    <property name="shotcut:skipConvert">1</property>
    <property name="global_feed">1</property>
    <property name="xml">was here</property>
    <filter id="filter58" in="00:42:21,833" out="00:42:22,733">
      <property name="background">colour:0</property>
      <property name="mlt_service">affine</property>
      <property name="shotcut:filter">affineSizePosition</property>
      <property name="transition.fill">1</property>
      <property name="transition.distort">0</property>
      <property name="transition.rect">-1193 -1049 3532 1990 1</property>
      <property name="transition.valign">top</property>
      <property name="transition.halign">left</property>
      <property name="shotcut:animIn">00:00:00,000</property>
      <property name="shotcut:animOut">00:00:00,000</property>
      <property name="transition.threads">0</property>
      <property name="disable">0</property>
    </filter>
    <filter id="filter59" in="00:42:21,833" out="00:42:22,733">
      <property name="background">colour:0</property>
      <property name="mlt_service">affine</property>
      <property name="shotcut:filter">affineRotate</property>
      <property name="transition.fix_rotate_x">0</property>
      <property name="transition.scale_x">0,343643</property>
      <property name="transition.ox">-127</property>
      <property name="transition.oy">-127</property>
      <property name="transition.threads">0</property>
      <property name="transition.scale_y">0,343643</property>
    </filter>
  </producer>
  <producer id="producer35" title="Anonymous Submission" in="00:00:00,000" out="01:28:15,367">
    <property name="length">01:28:15:12</property>
    <property name="eof">pause</property>
    <property name="resource">C:/Users/User/Videos/2021-01-15 23-25-09.mp4</property>
    <property name="audio_index">1</property>
    <property name="video_index">0</property>
    <property name="mute_on_pause">0</property>
    <property name="mlt_service">avformat-novalidate</property>
    <property name="seekable">1</property>
    <property name="aspect_ratio">1</property>
    <property name="shotcut:hash">930de6b08857e5fe9700e5dd50299c9a</property>
    <property name="ignore_points">0</property>
    <property name="shotcut:caption">2021-01-15 23-25-09.mp4</property>
    <property name="shotcut:detail">C:\Users\User\Videos\2021-01-15 23-25-09.mp4</property>
    <property name="shotcut:skipConvert">1</property>
    <property name="global_feed">1</property>
    <property name="xml">was here</property>
    <filter id="filter60" in="00:42:22,767" out="00:42:27,933">
      <property name="background">colour:0</property>
      <property name="mlt_service">affine</property>
      <property name="shotcut:filter">affineSizePosition</property>
      <property name="transition.fill">1</property>
      <property name="transition.distort">0</property>
      <property name="transition.rect">-1193 -1049 3532 1990 1</property>
      <property name="transition.valign">top</property>
      <property name="transition.halign">left</property>
      <property name="shotcut:animIn">00:00:00,000</property>
      <property name="shotcut:animOut">00:00:00,000</property>
      <property name="transition.threads">0</property>
      <property name="disable">0</property>
    </filter>
  </producer>
  <producer id="producer36" title="Anonymous Submission" in="00:00:00,000" out="01:28:15,367">
    <property name="length">01:28:15:12</property>
    <property name="eof">pause</property>
    <property name="resource">C:/Users/User/Videos/2021-01-15 23-25-09.mp4</property>
    <property name="audio_index">1</property>
    <property name="video_index">0</property>
    <property name="mute_on_pause">0</property>
    <property name="mlt_service">avformat-novalidate</property>
    <property name="seekable">1</property>
    <property name="aspect_ratio">1</property>
    <property name="shotcut:hash">930de6b08857e5fe9700e5dd50299c9a</property>
    <property name="ignore_points">0</property>
    <property name="shotcut:caption">2021-01-15 23-25-09.mp4</property>
    <property name="shotcut:detail">C:\Users\User\Videos\2021-01-15 23-25-09.mp4</property>
    <property name="shotcut:skipConvert">1</property>
    <property name="global_feed">1</property>
    <property name="xml">was here</property>
    <filter id="filter61" in="00:42:27,967" out="00:42:31,167">
      <property name="background">colour:0</property>
      <property name="mlt_service">affine</property>
      <property name="shotcut:filter">affineSizePosition</property>
      <property name="transition.fill">1</property>
      <property name="transition.distort">0</property>
      <property name="transition.rect">-1193 -1049 3532 1990 1</property>
      <property name="transition.valign">top</property>
      <property name="transition.halign">left</property>
      <property name="shotcut:animIn">00:00:00,000</property>
      <property name="shotcut:animOut">00:00:00,000</property>
      <property name="transition.threads">0</property>
      <property name="disable">0</property>
    </filter>
    <filter id="filter62" in="00:42:27,967" out="00:42:31,167">
      <property name="background">colour:0</property>
      <property name="mlt_service">affine</property>
      <property name="shotcut:filter">affineRotate</property>
      <property name="transition.fix_rotate_x">0</property>
      <property name="transition.scale_x">00:00:00,100=1;00:00:01,333=1,92678;00:00:01,867=14,7059;00:00:02,500=1,57233;00:00:03,067=1</property>
      <property name="transition.ox">0</property>
      <property name="transition.oy">0</property>
      <property name="transition.threads">0</property>
      <property name="shotcut:animIn">00:00:00,000</property>
      <property name="shotcut:animOut">00:00:00,000</property>
      <property name="transition.scale_y">00:00:00,100=1;00:00:01,333=1,92678;00:00:01,867=14,7059;00:00:02,500=1,57233;00:00:03,067=1</property>
    </filter>
  </producer>
  <producer id="producer37" title="Anonymous Submission" in="00:00:00,000" out="01:28:15,367">
    <property name="length">01:28:15:12</property>
    <property name="eof">pause</property>
    <property name="resource">C:/Users/User/Videos/2021-01-15 23-25-09.mp4</property>
    <property name="audio_index">1</property>
    <property name="video_index">0</property>
    <property name="mute_on_pause">0</property>
    <property name="mlt_service">avformat-novalidate</property>
    <property name="seekable">1</property>
    <property name="aspect_ratio">1</property>
    <property name="shotcut:hash">930de6b08857e5fe9700e5dd50299c9a</property>
    <property name="ignore_points">0</property>
    <property name="shotcut:caption">2021-01-15 23-25-09.mp4</property>
    <property name="shotcut:detail">C:\Users\User\Videos\2021-01-15 23-25-09.mp4</property>
    <property name="shotcut:skipConvert">1</property>
    <property name="global_feed">1</property>
    <property name="xml">was here</property>
    <filter id="filter63" in="00:42:31,200" out="00:42:41,267">
      <property name="background">colour:0</property>
      <property name="mlt_service">affine</property>
      <property name="shotcut:filter">affineSizePosition</property>
      <property name="transition.fill">1</property>
      <property name="transition.distort">0</property>
      <property name="transition.rect">-1193 -1049 3532 1990 1</property>
      <property name="transition.valign">top</property>
      <property name="transition.halign">left</property>
      <property name="shotcut:animIn">00:00:00,000</property>
      <property name="shotcut:animOut">00:00:00,000</property>
      <property name="transition.threads">0</property>
      <property name="disable">0</property>
    </filter>
  </producer>
  <producer id="producer38" title="Anonymous Submission" in="00:00:00,000" out="01:28:15,367">
    <property name="length">01:28:15:12</property>
    <property name="eof">pause</property>
    <property name="resource">C:/Users/User/Videos/2021-01-15 23-25-09.mp4</property>
    <property name="audio_index">1</property>
    <property name="video_index">0</property>
    <property name="mute_on_pause">0</property>
    <property name="mlt_service">avformat-novalidate</property>
    <property name="seekable">1</property>
    <property name="aspect_ratio">1</property>
    <property name="shotcut:hash">930de6b08857e5fe9700e5dd50299c9a</property>
    <property name="ignore_points">0</property>
    <property name="shotcut:caption">2021-01-15 23-25-09.mp4</property>
    <property name="shotcut:detail">C:\Users\User\Videos\2021-01-15 23-25-09.mp4</property>
    <property name="shotcut:skipConvert">1</property>
    <property name="global_feed">1</property>
    <property name="xml">was here</property>
    <filter id="filter64" in="00:46:53,700" out="00:46:54,233">
      <property name="background">colour:0</property>
      <property name="mlt_service">affine</property>
      <property name="shotcut:filter">affineSizePosition</property>
      <property name="transition.fill">1</property>
      <property name="transition.distort">0</property>
      <property name="transition.rect">-1193 -1049 3532 1990 1</property>
      <property name="transition.valign">top</property>
      <property name="transition.halign">left</property>
      <property name="shotcut:animIn">00:00:00,000</property>
      <property name="shotcut:animOut">00:00:00,000</property>
      <property name="transition.threads">0</property>
      <property name="disable">0</property>
    </filter>
  </producer>
  <producer id="producer39" title="Anonymous Submission" in="00:00:00,000" out="01:28:15,367">
    <property name="length">01:28:15:12</property>
    <property name="eof">pause</property>
    <property name="resource">C:/Users/User/Videos/2021-01-15 23-25-09.mp4</property>
    <property name="audio_index">1</property>
    <property name="video_index">0</property>
    <property name="mute_on_pause">0</property>
    <property name="mlt_service">avformat-novalidate</property>
    <property name="seekable">1</property>
    <property name="aspect_ratio">1</property>
    <property name="shotcut:hash">930de6b08857e5fe9700e5dd50299c9a</property>
    <property name="ignore_points">0</property>
    <property name="shotcut:caption">2021-01-15 23-25-09.mp4</property>
    <property name="shotcut:detail">C:\Users\User\Videos\2021-01-15 23-25-09.mp4</property>
    <property name="shotcut:skipConvert">1</property>
    <property name="global_feed">1</property>
    <property name="xml">was here</property>
    <filter id="filter65" in="00:46:54,267" out="00:46:54,833">
      <property name="background">colour:0</property>
      <property name="mlt_service">affine</property>
      <property name="shotcut:filter">affineSizePosition</property>
      <property name="transition.fill">1</property>
      <property name="transition.distort">0</property>
      <property name="transition.rect">-1193 -1049 3532 1990 1</property>
      <property name="transition.valign">top</property>
      <property name="transition.halign">left</property>
      <property name="shotcut:animIn">00:00:00,000</property>
      <property name="shotcut:animOut">00:00:00,000</property>
      <property name="transition.threads">0</property>
      <property name="disable">0</property>
    </filter>
    <filter id="filter66" in="00:46:54,267" out="00:46:54,833">
      <property name="argument">этот -&gt;</property>
      <property name="geometry">-450 -616 1920 1080 1</property>
      <property name="family">Verdana</property>
      <property name="size">96</property>
      <property name="weight">500</property>
      <property name="style">normal</property>
      <property name="fgcolour">#ffffffff</property>
      <property name="bgcolour">#00000000</property>
      <property name="olcolour">#ff000000</property>
      <property name="pad">0</property>
      <property name="halign">center</property>
      <property name="valign">bottom</property>
      <property name="outline">0</property>
      <property name="mlt_service">dynamictext</property>
      <property name="shotcut:filter">dynamicText</property>
      <property name="shotcut:usePointSize">1</property>
      <property name="shotcut:animIn">00:00:00,000</property>
      <property name="shotcut:animOut">00:00:00,000</property>
      <property name="shotcut:pointSize">72</property>
    </filter>
  </producer>
  <producer id="producer40" title="Anonymous Submission" in="00:00:00,000" out="01:28:15,367">
    <property name="length">01:28:15:12</property>
    <property name="eof">pause</property>
    <property name="resource">C:/Users/User/Videos/2021-01-15 23-25-09.mp4</property>
    <property name="audio_index">1</property>
    <property name="video_index">0</property>
    <property name="mute_on_pause">0</property>
    <property name="mlt_service">avformat-novalidate</property>
    <property name="seekable">1</property>
    <property name="aspect_ratio">1</property>
    <property name="shotcut:hash">930de6b08857e5fe9700e5dd50299c9a</property>
    <property name="ignore_points">0</property>
    <property name="shotcut:caption">2021-01-15 23-25-09.mp4</property>
    <property name="shotcut:detail">C:\Users\User\Videos\2021-01-15 23-25-09.mp4</property>
    <property name="shotcut:skipConvert">1</property>
    <property name="global_feed">1</property>
    <property name="xml">was here</property>
    <filter id="filter67" in="00:46:54,867" out="00:47:03,567">
      <property name="background">colour:0</property>
      <property name="mlt_service">affine</property>
      <property name="shotcut:filter">affineSizePosition</property>
      <property name="transition.fill">1</property>
      <property name="transition.distort">0</property>
      <property name="transition.rect">-1193 -1049 3532 1990 1</property>
      <property name="transition.valign">top</property>
      <property name="transition.halign">left</property>
      <property name="shotcut:animIn">00:00:00,000</property>
      <property name="shotcut:animOut">00:00:00,000</property>
      <property name="transition.threads">0</property>
      <property name="disable">0</property>
    </filter>
  </producer>
  <producer id="producer41" title="Anonymous Submission" in="00:00:00,000" out="01:28:15,367">
    <property name="length">01:28:15:12</property>
    <property name="eof">pause</property>
    <property name="resource">C:/Users/User/Videos/2021-01-15 23-25-09.mp4</property>
    <property name="audio_index">1</property>
    <property name="video_index">0</property>
    <property name="mute_on_pause">0</property>
    <property name="mlt_service">avformat-novalidate</property>
    <property name="seekable">1</property>
    <property name="aspect_ratio">1</property>
    <property name="shotcut:hash">930de6b08857e5fe9700e5dd50299c9a</property>
    <property name="ignore_points">0</property>
    <property name="shotcut:caption">2021-01-15 23-25-09.mp4</property>
    <property name="shotcut:detail">C:\Users\User\Videos\2021-01-15 23-25-09.mp4</property>
    <property name="shotcut:skipConvert">1</property>
    <property name="global_feed">1</property>
    <property name="xml">was here</property>
    <filter id="filter68" in="00:47:03,600" out="00:47:04,533">
      <property name="background">colour:0</property>
      <property name="mlt_service">affine</property>
      <property name="shotcut:filter">affineSizePosition</property>
      <property name="transition.fill">1</property>
      <property name="transition.distort">0</property>
      <property name="transition.rect">-1193 -1049 3532 1990 1</property>
      <property name="transition.valign">top</property>
      <property name="transition.halign">left</property>
      <property name="shotcut:animIn">00:00:00,000</property>
      <property name="shotcut:animOut">00:00:00,000</property>
      <property name="transition.threads">0</property>
      <property name="disable">0</property>
    </filter>
    <filter id="filter69" in="00:47:03,600" out="00:47:04,533">
      <property name="background">colour:0</property>
      <property name="mlt_service">affine</property>
      <property name="shotcut:filter">affineRotate</property>
      <property name="transition.fix_rotate_x">0</property>
      <property name="transition.scale_x">1000</property>
      <property name="transition.ox">0</property>
      <property name="transition.oy">0</property>
      <property name="transition.threads">0</property>
      <property name="transition.scale_y">1000</property>
    </filter>
    <filter id="filter70" in="00:47:03,600" out="00:47:04,533">
      <property name="argument">*Ушел "нахрен туда"*</property>
      <property name="geometry">-2 -443 1920 1080 1</property>
      <property name="family">Verdana</property>
      <property name="size">1080</property>
      <property name="weight">500</property>
      <property name="style">normal</property>
      <property name="fgcolour">#ffffffff</property>
      <property name="bgcolour">#00000000</property>
      <property name="olcolour">#ff000000</property>
      <property name="pad">0</property>
      <property name="halign">center</property>
      <property name="valign">bottom</property>
      <property name="outline">0</property>
      <property name="mlt_service">dynamictext</property>
      <property name="shotcut:filter">dynamicText</property>
      <property name="shotcut:usePointSize">0</property>
      <property name="shotcut:animIn">00:00:00,000</property>
      <property name="shotcut:animOut">00:00:00,000</property>
    </filter>
  </producer>
  <producer id="producer42" title="Anonymous Submission" in="00:00:00,000" out="01:28:15,367">
    <property name="length">01:28:15:12</property>
    <property name="eof">pause</property>
    <property name="resource">C:/Users/User/Videos/2021-01-15 23-25-09.mp4</property>
    <property name="audio_index">1</property>
    <property name="video_index">0</property>
    <property name="mute_on_pause">0</property>
    <property name="mlt_service">avformat-novalidate</property>
    <property name="seekable">1</property>
    <property name="aspect_ratio">1</property>
    <property name="shotcut:hash">930de6b08857e5fe9700e5dd50299c9a</property>
    <property name="ignore_points">0</property>
    <property name="shotcut:caption">2021-01-15 23-25-09.mp4</property>
    <property name="shotcut:detail">C:\Users\User\Videos\2021-01-15 23-25-09.mp4</property>
    <property name="shotcut:skipConvert">1</property>
    <property name="global_feed">1</property>
    <property name="xml">was here</property>
    <filter id="filter71" in="00:48:20,867" out="00:48:21,300">
      <property name="background">colour:0</property>
      <property name="mlt_service">affine</property>
      <property name="shotcut:filter">affineSizePosition</property>
      <property name="transition.fill">1</property>
      <property name="transition.distort">0</property>
      <property name="transition.rect">-1193 -1049 3532 1990 1</property>
      <property name="transition.valign">top</property>
      <property name="transition.halign">left</property>
      <property name="shotcut:animIn">00:00:00,000</property>
      <property name="shotcut:animOut">00:00:00,000</property>
      <property name="transition.threads">0</property>
      <property name="disable">0</property>
    </filter>
    <filter id="filter72" in="00:48:20,867" out="00:48:21,300">
      <property name="background">colour:0</property>
      <property name="mlt_service">affine</property>
      <property name="shotcut:filter">affineRotate</property>
      <property name="transition.fix_rotate_x">0</property>
      <property name="transition.scale_x">0,284738</property>
      <property name="transition.ox">-314</property>
      <property name="transition.oy">-261</property>
      <property name="transition.threads">0</property>
      <property name="transition.scale_y">0,284738</property>
    </filter>
  </producer>
  <producer id="producer43" title="Anonymous Submission" in="00:00:00,000" out="01:28:15,367">
    <property name="length">01:28:15:12</property>
    <property name="eof">pause</property>
    <property name="resource">C:/Users/User/Videos/2021-01-15 23-25-09.mp4</property>
    <property name="audio_index">1</property>
    <property name="video_index">0</property>
    <property name="mute_on_pause">0</property>
    <property name="mlt_service">avformat-novalidate</property>
    <property name="seekable">1</property>
    <property name="aspect_ratio">1</property>
    <property name="shotcut:hash">930de6b08857e5fe9700e5dd50299c9a</property>
    <property name="ignore_points">0</property>
    <property name="shotcut:caption">2021-01-15 23-25-09.mp4</property>
    <property name="shotcut:detail">C:\Users\User\Videos\2021-01-15 23-25-09.mp4</property>
    <property name="shotcut:skipConvert">1</property>
    <property name="global_feed">1</property>
    <property name="xml">was here</property>
    <filter id="filter73" in="00:48:21,333" out="00:48:38,000">
      <property name="background">colour:0</property>
      <property name="mlt_service">affine</property>
      <property name="shotcut:filter">affineSizePosition</property>
      <property name="transition.fill">1</property>
      <property name="transition.distort">0</property>
      <property name="transition.rect">-1193 -1049 3532 1990 1</property>
      <property name="transition.valign">top</property>
      <property name="transition.halign">left</property>
      <property name="shotcut:animIn">00:00:00,000</property>
      <property name="shotcut:animOut">00:00:00,000</property>
      <property name="transition.threads">0</property>
      <property name="disable">0</property>
    </filter>
  </producer>
  <producer id="producer44" title="Anonymous Submission" in="00:00:00,000" out="01:28:15,367">
    <property name="length">01:28:15:12</property>
    <property name="eof">pause</property>
    <property name="resource">C:/Users/User/Videos/2021-01-15 23-25-09.mp4</property>
    <property name="audio_index">1</property>
    <property name="video_index">0</property>
    <property name="mute_on_pause">0</property>
    <property name="mlt_service">avformat-novalidate</property>
    <property name="seekable">1</property>
    <property name="aspect_ratio">1</property>
    <property name="shotcut:hash">930de6b08857e5fe9700e5dd50299c9a</property>
    <property name="ignore_points">0</property>
    <property name="shotcut:caption">2021-01-15 23-25-09.mp4</property>
    <property name="shotcut:detail">C:\Users\User\Videos\2021-01-15 23-25-09.mp4</property>
    <property name="shotcut:skipConvert">1</property>
    <property name="global_feed">1</property>
    <property name="xml">was here</property>
    <filter id="filter74" in="00:48:38,033" out="00:48:41,033">
      <property name="background">colour:0</property>
      <property name="mlt_service">affine</property>
      <property name="shotcut:filter">affineSizePosition</property>
      <property name="transition.fill">1</property>
      <property name="transition.distort">0</property>
      <property name="transition.rect">-1193 -1049 3532 1990 1</property>
      <property name="transition.valign">top</property>
      <property name="transition.halign">left</property>
      <property name="shotcut:animIn">00:00:00,000</property>
      <property name="shotcut:animOut">00:00:00,000</property>
      <property name="transition.threads">0</property>
      <property name="disable">0</property>
    </filter>
    <filter id="filter75" in="00:48:38,033" out="00:48:41,033">
      <property name="background">colour:0</property>
      <property name="mlt_service">affine</property>
      <property name="shotcut:filter">affineRotate</property>
      <property name="transition.fix_rotate_x">00:00:00,067=0;00:00:00,867=198,7;00:00:01,700=309,4</property>
      <property name="transition.scale_x">1</property>
      <property name="transition.ox">00:00:00,000|=0;00:00:00,067=0;00:00:00,867=-421;00:00:02,333=114;00:00:02,533=849;00:00:02,900=1478</property>
      <property name="transition.oy">00:00:00,000|=0;00:00:00,067=0;00:00:00,867=20</property>
      <property name="transition.threads">0</property>
      <property name="shotcut:animIn">00:00:00,000</property>
      <property name="shotcut:animOut">00:00:00,000</property>
    </filter>
  </producer>
  <producer id="producer45" title="Anonymous Submission" in="00:00:00,000" out="01:28:15,367">
    <property name="length">01:28:15:12</property>
    <property name="eof">pause</property>
    <property name="resource">C:/Users/User/Videos/2021-01-15 23-25-09.mp4</property>
    <property name="audio_index">1</property>
    <property name="video_index">0</property>
    <property name="mute_on_pause">0</property>
    <property name="mlt_service">avformat-novalidate</property>
    <property name="seekable">1</property>
    <property name="aspect_ratio">1</property>
    <property name="shotcut:hash">930de6b08857e5fe9700e5dd50299c9a</property>
    <property name="ignore_points">0</property>
    <property name="shotcut:caption">2021-01-15 23-25-09.mp4</property>
    <property name="shotcut:detail">C:\Users\User\Videos\2021-01-15 23-25-09.mp4</property>
    <property name="shotcut:skipConvert">1</property>
    <property name="global_feed">1</property>
    <property name="xml">was here</property>
    <filter id="filter76" in="00:48:41,067" out="00:48:48,833">
      <property name="background">colour:0</property>
      <property name="mlt_service">affine</property>
      <property name="shotcut:filter">affineSizePosition</property>
      <property name="transition.fill">1</property>
      <property name="transition.distort">0</property>
      <property name="transition.rect">-1193 -1049 3532 1990 1</property>
      <property name="transition.valign">top</property>
      <property name="transition.halign">left</property>
      <property name="shotcut:animIn">00:00:00,000</property>
      <property name="shotcut:animOut">00:00:00,000</property>
      <property name="transition.threads">0</property>
      <property name="disable">0</property>
    </filter>
  </producer>
  <producer id="producer46" title="Anonymous Submission" in="00:00:00,000" out="01:28:15,367">
    <property name="length">01:28:15:12</property>
    <property name="eof">pause</property>
    <property name="resource">C:/Users/User/Videos/2021-01-15 23-25-09.mp4</property>
    <property name="audio_index">1</property>
    <property name="video_index">0</property>
    <property name="mute_on_pause">0</property>
    <property name="mlt_service">avformat-novalidate</property>
    <property name="seekable">1</property>
    <property name="aspect_ratio">1</property>
    <property name="shotcut:hash">930de6b08857e5fe9700e5dd50299c9a</property>
    <property name="ignore_points">0</property>
    <property name="shotcut:caption">2021-01-15 23-25-09.mp4</property>
    <property name="shotcut:detail">C:\Users\User\Videos\2021-01-15 23-25-09.mp4</property>
    <property name="shotcut:skipConvert">1</property>
    <property name="global_feed">1</property>
    <property name="xml">was here</property>
    <filter id="filter77" in="00:48:48,867" out="00:48:51,767">
      <property name="background">colour:0</property>
      <property name="mlt_service">affine</property>
      <property name="shotcut:filter">affineSizePosition</property>
      <property name="transition.fill">1</property>
      <property name="transition.distort">0</property>
      <property name="transition.rect">-1193 -1049 3532 1990 1</property>
      <property name="transition.valign">top</property>
      <property name="transition.halign">left</property>
      <property name="shotcut:animIn">00:00:00,000</property>
      <property name="shotcut:animOut">00:00:00,000</property>
      <property name="transition.threads">0</property>
      <property name="disable">0</property>
    </filter>
    <filter id="filter78" in="00:48:48,867" out="00:48:51,767">
      <property name="background">colour:0</property>
      <property name="mlt_service">affine</property>
      <property name="shotcut:filter">affineRotate</property>
      <property name="transition.fix_rotate_x">-37,3</property>
      <property name="transition.scale_x">1</property>
      <property name="transition.ox">00:00:00,000|=0;00:00:00,300=0;00:00:01,000=341;00:00:01,300=114;00:00:02,067=689;00:00:02,700=60</property>
      <property name="transition.oy">0</property>
      <property name="transition.threads">0</property>
    </filter>
  </producer>
  <producer id="producer47" title="Anonymous Submission" in="00:00:00,000" out="01:28:15,367">
    <property name="length">01:28:15:12</property>
    <property name="eof">pause</property>
    <property name="resource">C:/Users/User/Videos/2021-01-15 23-25-09.mp4</property>
    <property name="audio_index">1</property>
    <property name="video_index">0</property>
    <property name="mute_on_pause">0</property>
    <property name="mlt_service">avformat-novalidate</property>
    <property name="seekable">1</property>
    <property name="aspect_ratio">1</property>
    <property name="shotcut:hash">930de6b08857e5fe9700e5dd50299c9a</property>
    <property name="ignore_points">0</property>
    <property name="shotcut:caption">2021-01-15 23-25-09.mp4</property>
    <property name="shotcut:detail">C:\Users\User\Videos\2021-01-15 23-25-09.mp4</property>
    <property name="shotcut:skipConvert">1</property>
    <property name="global_feed">1</property>
    <property name="xml">was here</property>
    <filter id="filter79" in="00:48:51,800" out="00:49:05,400">
      <property name="background">colour:0</property>
      <property name="mlt_service">affine</property>
      <property name="shotcut:filter">affineSizePosition</property>
      <property name="transition.fill">1</property>
      <property name="transition.distort">0</property>
      <property name="transition.rect">-1193 -1049 3532 1990 1</property>
      <property name="transition.valign">top</property>
      <property name="transition.halign">left</property>
      <property name="shotcut:animIn">00:00:00,000</property>
      <property name="shotcut:animOut">00:00:00,000</property>
      <property name="transition.threads">0</property>
      <property name="disable">0</property>
    </filter>
  </producer>
  <producer id="producer48" title="Anonymous Submission" in="00:00:00,000" out="01:28:15,367">
    <property name="length">01:28:15:12</property>
    <property name="eof">pause</property>
    <property name="resource">C:/Users/User/Videos/2021-01-15 23-25-09.mp4</property>
    <property name="audio_index">1</property>
    <property name="video_index">0</property>
    <property name="mute_on_pause">0</property>
    <property name="mlt_service">avformat-novalidate</property>
    <property name="seekable">1</property>
    <property name="aspect_ratio">1</property>
    <property name="shotcut:hash">930de6b08857e5fe9700e5dd50299c9a</property>
    <property name="ignore_points">0</property>
    <property name="shotcut:caption">2021-01-15 23-25-09.mp4</property>
    <property name="shotcut:detail">C:\Users\User\Videos\2021-01-15 23-25-09.mp4</property>
    <property name="shotcut:skipConvert">1</property>
    <property name="global_feed">1</property>
    <property name="xml">was here</property>
    <filter id="filter80" in="00:51:06,600" out="00:51:36,733">
      <property name="background">colour:0</property>
      <property name="mlt_service">affine</property>
      <property name="shotcut:filter">affineSizePosition</property>
      <property name="transition.fill">1</property>
      <property name="transition.distort">0</property>
      <property name="transition.rect">-1193 -1049 3532 1990 1</property>
      <property name="transition.valign">top</property>
      <property name="transition.halign">left</property>
      <property name="shotcut:animIn">00:00:00,000</property>
      <property name="shotcut:animOut">00:00:00,000</property>
      <property name="transition.threads">0</property>
      <property name="disable">0</property>
    </filter>
  </producer>
  <producer id="producer49" title="Anonymous Submission" in="00:00:00,000" out="02:56:30,767">
    <property name="length">317724</property>
    <property name="eof">pause</property>
    <property name="resource">0,5:C:\Users\User\Videos\2021-01-15 23-25-09.mp4</property>
    <property name="aspect_ratio">1</property>
    <property name="seekable">1</property>
    <property name="audio_index">1</property>
    <property name="video_index">0</property>
    <property name="mute_on_pause">1</property>
    <property name="warp_speed">0,5</property>
    <property name="warp_resource">C:\Users\User\Videos\2021-01-15 23-25-09.mp4</property>
    <property name="mlt_service">timewarp</property>
    <property name="shotcut:producer">avformat</property>
    <property name="video_delay">0</property>
    <property name="shotcut:hash">930de6b08857e5fe9700e5dd50299c9a</property>
    <property name="shotcut:skipConvert">1</property>
    <property name="global_feed">1</property>
    <property name="xml">was here</property>
    <property name="shotcut:caption">2021-01-15 23-25-09.mp4 (0.5x)</property>
    <property name="shotcut:detail">C:\Users\User\Videos\2021-01-15 23-25-09.mp4</property>
    <filter id="filter81" in="01:43:13,533" out="01:43:15,200">
      <property name="background">colour:0</property>
      <property name="mlt_service">affine</property>
      <property name="shotcut:filter">affineSizePosition</property>
      <property name="transition.fill">1</property>
      <property name="transition.distort">0</property>
      <property name="transition.rect">-1193 -1049 3532 1990 1</property>
      <property name="transition.valign">top</property>
      <property name="transition.halign">left</property>
      <property name="shotcut:animIn">00:00:00,000</property>
      <property name="shotcut:animOut">00:00:00,000</property>
      <property name="transition.threads">0</property>
      <property name="disable">0</property>
    </filter>
    <filter id="filter82" in="01:43:13,533" out="01:43:15,200">
      <property name="background">colour:0</property>
      <property name="mlt_service">affine</property>
      <property name="shotcut:filter">affineRotate</property>
      <property name="transition.fix_rotate_x">0</property>
      <property name="transition.scale_x">1000</property>
      <property name="transition.ox">0</property>
      <property name="transition.oy">0</property>
      <property name="transition.threads">0</property>
      <property name="transition.scale_y">1000</property>
    </filter>
    <filter id="filter83" in="01:43:13,533" out="01:43:15,200">
      <property name="argument">Например нашу кинокарточку!</property>
      <property name="geometry">-8 -426 1920 1080 1</property>
      <property name="family">Verdana</property>
      <property name="size">1080</property>
      <property name="weight">500</property>
      <property name="style">normal</property>
      <property name="fgcolour">#ffffffff</property>
      <property name="bgcolour">#00000000</property>
      <property name="olcolour">#ff000000</property>
      <property name="pad">0</property>
      <property name="halign">center</property>
      <property name="valign">bottom</property>
      <property name="outline">0</property>
      <property name="mlt_service">dynamictext</property>
      <property name="shotcut:filter">dynamicText</property>
      <property name="shotcut:usePointSize">0</property>
      <property name="shotcut:animIn">00:00:00,000</property>
      <property name="shotcut:animOut">00:00:00,000</property>
      <property name="disable">0</property>
    </filter>
  </producer>
  <producer id="producer50" title="Anonymous Submission" in="00:00:00,000" out="01:28:15,367">
    <property name="length">01:28:15:12</property>
    <property name="eof">pause</property>
    <property name="resource">C:/Users/User/Videos/2021-01-15 23-25-09.mp4</property>
    <property name="audio_index">1</property>
    <property name="video_index">0</property>
    <property name="mute_on_pause">0</property>
    <property name="mlt_service">avformat-novalidate</property>
    <property name="seekable">1</property>
    <property name="aspect_ratio">1</property>
    <property name="shotcut:hash">930de6b08857e5fe9700e5dd50299c9a</property>
    <property name="ignore_points">0</property>
    <property name="shotcut:caption">2021-01-15 23-25-09.mp4</property>
    <property name="shotcut:detail">C:\Users\User\Videos\2021-01-15 23-25-09.mp4</property>
    <property name="shotcut:skipConvert">1</property>
    <property name="global_feed">1</property>
    <property name="xml">was here</property>
    <filter id="filter84" in="00:52:15,233" out="00:52:20,833">
      <property name="background">colour:0</property>
      <property name="mlt_service">affine</property>
      <property name="shotcut:filter">affineSizePosition</property>
      <property name="transition.fill">1</property>
      <property name="transition.distort">0</property>
      <property name="transition.rect">-1193 -1049 3532 1990 1</property>
      <property name="transition.valign">top</property>
      <property name="transition.halign">left</property>
      <property name="shotcut:animIn">00:00:00,000</property>
      <property name="shotcut:animOut">00:00:00,000</property>
      <property name="transition.threads">0</property>
      <property name="disable">0</property>
    </filter>
  </producer>
  <producer id="producer51" title="Anonymous Submission" in="00:00:00,000" out="01:28:15,367">
    <property name="length">01:28:15:12</property>
    <property name="eof">pause</property>
    <property name="resource">C:/Users/User/Videos/2021-01-15 23-25-09.mp4</property>
    <property name="audio_index">1</property>
    <property name="video_index">0</property>
    <property name="mute_on_pause">0</property>
    <property name="mlt_service">avformat-novalidate</property>
    <property name="seekable">1</property>
    <property name="aspect_ratio">1</property>
    <property name="shotcut:hash">930de6b08857e5fe9700e5dd50299c9a</property>
    <property name="ignore_points">0</property>
    <property name="shotcut:caption">2021-01-15 23-25-09.mp4</property>
    <property name="shotcut:detail">C:\Users\User\Videos\2021-01-15 23-25-09.mp4</property>
    <property name="shotcut:skipConvert">1</property>
    <property name="global_feed">1</property>
    <property name="xml">was here</property>
    <filter id="filter85" in="00:52:20,867" out="00:52:23,433">
      <property name="background">colour:0</property>
      <property name="mlt_service">affine</property>
      <property name="shotcut:filter">affineSizePosition</property>
      <property name="transition.fill">1</property>
      <property name="transition.distort">0</property>
      <property name="transition.rect">-1193 -1049 3532 1990 1</property>
      <property name="transition.valign">top</property>
      <property name="transition.halign">left</property>
      <property name="shotcut:animIn">00:00:00,000</property>
      <property name="shotcut:animOut">00:00:00,000</property>
      <property name="transition.threads">0</property>
      <property name="disable">0</property>
    </filter>
    <filter id="filter86" in="00:52:20,867" out="00:52:23,433">
      <property name="mlt_service">invert</property>
    </filter>
    <filter id="filter87" in="00:52:20,867" out="00:52:23,433">
      <property name="background">colour:0</property>
      <property name="mlt_service">affine</property>
      <property name="shotcut:filter">affineRotate</property>
      <property name="transition.fix_rotate_x">00:00:00,133=0;00:00:00,867=104,7;00:00:01,467=-85,5;00:00:02,000=360;00:00:02,400=104,7</property>
      <property name="transition.scale_x">1</property>
      <property name="transition.ox">0</property>
      <property name="transition.oy">0</property>
      <property name="transition.threads">0</property>
      <property name="shotcut:animIn">00:00:00,000</property>
      <property name="shotcut:animOut">00:00:00,000</property>
    </filter>
    <filter id="filter88" in="00:52:20,867" out="00:52:23,433">
      <property name="window">75</property>
      <property name="max_gain">20dB</property>
      <property name="level">24</property>
      <property name="mlt_service">volume</property>
    </filter>
  </producer>
  <producer id="producer52" title="Anonymous Submission" in="00:00:00,000" out="01:28:15,367">
    <property name="length">01:28:15:12</property>
    <property name="eof">pause</property>
    <property name="resource">C:/Users/User/Videos/2021-01-15 23-25-09.mp4</property>
    <property name="audio_index">1</property>
    <property name="video_index">0</property>
    <property name="mute_on_pause">0</property>
    <property name="mlt_service">avformat-novalidate</property>
    <property name="seekable">1</property>
    <property name="aspect_ratio">1</property>
    <property name="shotcut:hash">930de6b08857e5fe9700e5dd50299c9a</property>
    <property name="ignore_points">0</property>
    <property name="shotcut:caption">2021-01-15 23-25-09.mp4</property>
    <property name="shotcut:detail">C:\Users\User\Videos\2021-01-15 23-25-09.mp4</property>
    <property name="shotcut:skipConvert">1</property>
    <property name="global_feed">1</property>
    <property name="xml">was here</property>
    <filter id="filter89" in="00:52:23,467" out="00:52:25,933">
      <property name="background">colour:0</property>
      <property name="mlt_service">affine</property>
      <property name="shotcut:filter">affineSizePosition</property>
      <property name="transition.fill">1</property>
      <property name="transition.distort">0</property>
      <property name="transition.rect">-1193 -1049 3532 1990 1</property>
      <property name="transition.valign">top</property>
      <property name="transition.halign">left</property>
      <property name="shotcut:animIn">00:00:00,000</property>
      <property name="shotcut:animOut">00:00:00,000</property>
      <property name="transition.threads">0</property>
      <property name="disable">0</property>
    </filter>
    <filter id="filter90" in="00:52:23,467" out="00:52:25,933">
      <property name="background">colour:0</property>
      <property name="mlt_service">affine</property>
      <property name="shotcut:filter">affineRotate</property>
      <property name="transition.fix_rotate_x">0</property>
      <property name="transition.scale_x">1</property>
      <property name="transition.ox">00:00:00,000=-0;00:00:00,367=261;00:00:02,333=-1585</property>
      <property name="transition.oy">0</property>
      <property name="transition.threads">0</property>
    </filter>
  </producer>
  <producer id="producer53" title="Anonymous Submission" in="00:00:00,000" out="01:28:15,367">
    <property name="length">01:28:15:12</property>
    <property name="eof">pause</property>
    <property name="resource">C:/Users/User/Videos/2021-01-15 23-25-09.mp4</property>
    <property name="audio_index">1</property>
    <property name="video_index">0</property>
    <property name="mute_on_pause">0</property>
    <property name="mlt_service">avformat-novalidate</property>
    <property name="seekable">1</property>
    <property name="aspect_ratio">1</property>
    <property name="shotcut:hash">930de6b08857e5fe9700e5dd50299c9a</property>
    <property name="ignore_points">0</property>
    <property name="shotcut:caption">2021-01-15 23-25-09.mp4</property>
    <property name="shotcut:detail">C:\Users\User\Videos\2021-01-15 23-25-09.mp4</property>
    <property name="shotcut:skipConvert">1</property>
    <property name="global_feed">1</property>
    <property name="xml">was here</property>
    <filter id="filter91" in="00:52:25,967" out="00:52:27,500">
      <property name="background">colour:0</property>
      <property name="mlt_service">affine</property>
      <property name="shotcut:filter">affineSizePosition</property>
      <property name="transition.fill">1</property>
      <property name="transition.distort">0</property>
      <property name="transition.rect">-1193 -1049 3532 1990 1</property>
      <property name="transition.valign">top</property>
      <property name="transition.halign">left</property>
      <property name="shotcut:animIn">00:00:00,000</property>
      <property name="shotcut:animOut">00:00:00,000</property>
      <property name="transition.threads">0</property>
      <property name="disable">0</property>
    </filter>
  </producer>
  <producer id="producer54" title="Anonymous Submission" in="00:00:00,000" out="01:28:15,367">
    <property name="length">01:28:15:12</property>
    <property name="eof">pause</property>
    <property name="resource">C:/Users/User/Videos/2021-01-15 23-25-09.mp4</property>
    <property name="audio_index">1</property>
    <property name="video_index">0</property>
    <property name="mute_on_pause">0</property>
    <property name="mlt_service">avformat-novalidate</property>
    <property name="seekable">1</property>
    <property name="aspect_ratio">1</property>
    <property name="shotcut:hash">930de6b08857e5fe9700e5dd50299c9a</property>
    <property name="ignore_points">0</property>
    <property name="shotcut:caption">2021-01-15 23-25-09.mp4</property>
    <property name="shotcut:detail">C:\Users\User\Videos\2021-01-15 23-25-09.mp4</property>
    <property name="shotcut:skipConvert">1</property>
    <property name="global_feed">1</property>
    <property name="xml">was here</property>
    <filter id="filter92" in="00:53:05,033" out="00:53:05,533">
      <property name="background">colour:0</property>
      <property name="mlt_service">affine</property>
      <property name="shotcut:filter">affineSizePosition</property>
      <property name="transition.fill">1</property>
      <property name="transition.distort">0</property>
      <property name="transition.rect">-1193 -1049 3532 1990 1</property>
      <property name="transition.valign">top</property>
      <property name="transition.halign">left</property>
      <property name="shotcut:animIn">00:00:00,000</property>
      <property name="shotcut:animOut">00:00:00,000</property>
      <property name="transition.threads">0</property>
      <property name="disable">0</property>
    </filter>
    <filter id="filter93" in="00:53:05,033" out="00:53:05,533">
      <property name="argument">На сим кинокарточна "Шизоидные Истории: эпизод 1, Ржавая Шизофазия"
       



</property>
      <property name="geometry">-3 -7 1920 1080 1</property>
      <property name="family">Verdana</property>
      <property name="size">180</property>
      <property name="weight">500</property>
      <property name="style">normal</property>
      <property name="fgcolour">#ffffffff</property>
      <property name="bgcolour">#00000000</property>
      <property name="olcolour">#ff000000</property>
      <property name="pad">0</property>
      <property name="halign">center</property>
      <property name="valign">bottom</property>
      <property name="outline">0</property>
      <property name="mlt_service">dynamictext</property>
      <property name="shotcut:filter">dynamicText</property>
      <property name="shotcut:usePointSize">0</property>
      <property name="shotcut:animIn">00:00:00,000</property>
      <property name="shotcut:animOut">00:00:00,000</property>
    </filter>
  </producer>
  <producer id="producer55" title="Anonymous Submission" in="00:00:00,000" out="01:28:15,367">
    <property name="length">01:28:15:12</property>
    <property name="eof">pause</property>
    <property name="resource">C:/Users/User/Videos/2021-01-15 23-25-09.mp4</property>
    <property name="audio_index">1</property>
    <property name="video_index">0</property>
    <property name="mute_on_pause">0</property>
    <property name="mlt_service">avformat-novalidate</property>
    <property name="seekable">1</property>
    <property name="aspect_ratio">1</property>
    <property name="shotcut:hash">930de6b08857e5fe9700e5dd50299c9a</property>
    <property name="ignore_points">0</property>
    <property name="shotcut:caption">2021-01-15 23-25-09.mp4</property>
    <property name="shotcut:detail">C:\Users\User\Videos\2021-01-15 23-25-09.mp4</property>
    <property name="shotcut:skipConvert">1</property>
    <property name="global_feed">1</property>
    <property name="xml">was here</property>
    <filter id="filter94" in="00:53:05,567" out="00:53:06,567">
      <property name="background">colour:0</property>
      <property name="mlt_service">affine</property>
      <property name="shotcut:filter">affineSizePosition</property>
      <property name="transition.fill">1</property>
      <property name="transition.distort">0</property>
      <property name="transition.rect">-1193 -1049 3532 1990 1</property>
      <property name="transition.valign">top</property>
      <property name="transition.halign">left</property>
      <property name="shotcut:animIn">00:00:00,000</property>
      <property name="shotcut:animOut">00:00:00,000</property>
      <property name="transition.threads">0</property>
      <property name="disable">0</property>
    </filter>
    <filter id="filter95" in="00:53:05,567" out="00:53:06,567">
      <property name="argument">На сим кинокарточна "Шизоидные Истории: эпизод 1, Ржавая Шизофазия"
                           ЗАВЕРШЕН



</property>
      <property name="geometry">-3 -7 1920 1080 1</property>
      <property name="family">Verdana</property>
      <property name="size">180</property>
      <property name="weight">500</property>
      <property name="style">normal</property>
      <property name="fgcolour">#ffffffff</property>
      <property name="bgcolour">#00000000</property>
      <property name="olcolour">#ff000000</property>
      <property name="pad">0</property>
      <property name="halign">center</property>
      <property name="valign">bottom</property>
      <property name="outline">0</property>
      <property name="mlt_service">dynamictext</property>
      <property name="shotcut:filter">dynamicText</property>
      <property name="shotcut:usePointSize">0</property>
      <property name="shotcut:animIn">00:00:00,000</property>
      <property name="shotcut:animOut">00:00:00,000</property>
    </filter>
  </producer>
  <producer id="producer56" title="Anonymous Submission" in="00:00:00,000" out="01:28:15,367">
    <property name="length">01:28:15:12</property>
    <property name="eof">pause</property>
    <property name="resource">C:/Users/User/Videos/2021-01-15 23-25-09.mp4</property>
    <property name="audio_index">1</property>
    <property name="video_index">0</property>
    <property name="mute_on_pause">0</property>
    <property name="mlt_service">avformat-novalidate</property>
    <property name="seekable">1</property>
    <property name="aspect_ratio">1</property>
    <property name="shotcut:hash">930de6b08857e5fe9700e5dd50299c9a</property>
    <property name="ignore_points">0</property>
    <property name="shotcut:caption">2021-01-15 23-25-09.mp4</property>
    <property name="shotcut:detail">C:\Users\User\Videos\2021-01-15 23-25-09.mp4</property>
    <property name="shotcut:skipConvert">1</property>
    <property name="global_feed">1</property>
    <property name="xml">was here</property>
    <filter id="filter96" in="00:53:06,600" out="00:53:07,233">
      <property name="background">colour:0</property>
      <property name="mlt_service">affine</property>
      <property name="shotcut:filter">affineSizePosition</property>
      <property name="transition.fill">1</property>
      <property name="transition.distort">0</property>
      <property name="transition.rect">-1193 -1049 3532 1990 1</property>
      <property name="transition.valign">top</property>
      <property name="transition.halign">left</property>
      <property name="shotcut:animIn">00:00:00,000</property>
      <property name="shotcut:animOut">00:00:00,000</property>
      <property name="transition.threads">0</property>
      <property name="disable">0</property>
    </filter>
    <filter id="filter97" in="00:53:06,600" out="00:53:07,233">
      <property name="argument">На сим кинокарточна "Шизоидные Истории: эпизод 1, Ржавая Шизофазия"
                           ЗАВЕРШЕН
В ролях:


</property>
      <property name="geometry">-3 -7 1920 1080 1</property>
      <property name="family">Verdana</property>
      <property name="size">180</property>
      <property name="weight">500</property>
      <property name="style">normal</property>
      <property name="fgcolour">#ffffffff</property>
      <property name="bgcolour">#00000000</property>
      <property name="olcolour">#ff000000</property>
      <property name="pad">0</property>
      <property name="halign">center</property>
      <property name="valign">bottom</property>
      <property name="outline">0</property>
      <property name="mlt_service">dynamictext</property>
      <property name="shotcut:filter">dynamicText</property>
      <property name="shotcut:usePointSize">0</property>
      <property name="shotcut:animIn">00:00:00,000</property>
      <property name="shotcut:animOut">00:00:00,000</property>
    </filter>
  </producer>
  <producer id="producer57" title="Anonymous Submission" in="00:00:00,000" out="01:28:15,367">
    <property name="length">01:28:15:12</property>
    <property name="eof">pause</property>
    <property name="resource">C:/Users/User/Videos/2021-01-15 23-25-09.mp4</property>
    <property name="audio_index">1</property>
    <property name="video_index">0</property>
    <property name="mute_on_pause">0</property>
    <property name="mlt_service">avformat-novalidate</property>
    <property name="seekable">1</property>
    <property name="aspect_ratio">1</property>
    <property name="shotcut:hash">930de6b08857e5fe9700e5dd50299c9a</property>
    <property name="ignore_points">0</property>
    <property name="shotcut:caption">2021-01-15 23-25-09.mp4</property>
    <property name="shotcut:detail">C:\Users\User\Videos\2021-01-15 23-25-09.mp4</property>
    <property name="shotcut:skipConvert">1</property>
    <property name="global_feed">1</property>
    <property name="xml">was here</property>
    <filter id="filter98" in="00:53:07,267" out="00:53:07,833">
      <property name="background">colour:0</property>
      <property name="mlt_service">affine</property>
      <property name="shotcut:filter">affineSizePosition</property>
      <property name="transition.fill">1</property>
      <property name="transition.distort">0</property>
      <property name="transition.rect">-1193 -1049 3532 1990 1</property>
      <property name="transition.valign">top</property>
      <property name="transition.halign">left</property>
      <property name="shotcut:animIn">00:00:00,000</property>
      <property name="shotcut:animOut">00:00:00,000</property>
      <property name="transition.threads">0</property>
      <property name="disable">0</property>
    </filter>
    <filter id="filter99" in="00:53:07,267" out="00:53:07,833">
      <property name="argument">На сим кинокарточна "Шизоидные Истории: эпизод 1, Ржавая Шизофазия"
                           ЗАВЕРШЕН
В ролях:
Унылый голос в голове - Некрон
 
</property>
      <property name="geometry">-3 -7 1920 1080 1</property>
      <property name="family">Verdana</property>
      <property name="size">180</property>
      <property name="weight">500</property>
      <property name="style">normal</property>
      <property name="fgcolour">#ffffffff</property>
      <property name="bgcolour">#00000000</property>
      <property name="olcolour">#ff000000</property>
      <property name="pad">0</property>
      <property name="halign">center</property>
      <property name="valign">bottom</property>
      <property name="outline">0</property>
      <property name="mlt_service">dynamictext</property>
      <property name="shotcut:filter">dynamicText</property>
      <property name="shotcut:usePointSize">0</property>
      <property name="shotcut:animIn">00:00:00,000</property>
      <property name="shotcut:animOut">00:00:00,000</property>
    </filter>
  </producer>
  <producer id="producer58" title="Anonymous Submission" in="00:00:00,000" out="01:28:15,367">
    <property name="length">01:28:15:12</property>
    <property name="eof">pause</property>
    <property name="resource">C:/Users/User/Videos/2021-01-15 23-25-09.mp4</property>
    <property name="audio_index">1</property>
    <property name="video_index">0</property>
    <property name="mute_on_pause">0</property>
    <property name="mlt_service">avformat-novalidate</property>
    <property name="seekable">1</property>
    <property name="aspect_ratio">1</property>
    <property name="shotcut:hash">930de6b08857e5fe9700e5dd50299c9a</property>
    <property name="ignore_points">0</property>
    <property name="shotcut:caption">2021-01-15 23-25-09.mp4</property>
    <property name="shotcut:detail">C:\Users\User\Videos\2021-01-15 23-25-09.mp4</property>
    <property name="shotcut:skipConvert">1</property>
    <property name="global_feed">1</property>
    <property name="xml">was here</property>
    <filter id="filter100" in="00:53:07,867" out="00:53:10,567">
      <property name="background">colour:0</property>
      <property name="mlt_service">affine</property>
      <property name="shotcut:filter">affineSizePosition</property>
      <property name="transition.fill">1</property>
      <property name="transition.distort">0</property>
      <property name="transition.rect">-1193 -1049 3532 1990 1</property>
      <property name="transition.valign">top</property>
      <property name="transition.halign">left</property>
      <property name="shotcut:animIn">00:00:00,000</property>
      <property name="shotcut:animOut">00:00:00,000</property>
      <property name="transition.threads">0</property>
      <property name="disable">0</property>
    </filter>
    <filter id="filter101" in="00:53:07,867" out="00:53:10,567">
      <property name="argument">На сим кинокарточна "Шизоидные Истории: эпизод 1, Ржавая Шизофазия"
                           ЗАВЕРШЕН
В ролях:
Унылый голос в голове - Некрон

</property>
      <property name="geometry">-3 -7 1920 1080 1</property>
      <property name="family">Verdana</property>
      <property name="size">180</property>
      <property name="weight">500</property>
      <property name="style">normal</property>
      <property name="fgcolour">#ffffffff</property>
      <property name="bgcolour">#00000000</property>
      <property name="olcolour">#ff000000</property>
      <property name="pad">0</property>
      <property name="halign">center</property>
      <property name="valign">bottom</property>
      <property name="outline">0</property>
      <property name="mlt_service">dynamictext</property>
      <property name="shotcut:filter">dynamicText</property>
      <property name="shotcut:usePointSize">0</property>
      <property name="shotcut:animIn">00:00:00,000</property>
      <property name="shotcut:animOut">00:00:00,000</property>
    </filter>
  </producer>
  <producer id="producer59" title="Anonymous Submission" in="00:00:00,000" out="01:28:15,367">
    <property name="length">01:28:15:12</property>
    <property name="eof">pause</property>
    <property name="resource">C:/Users/User/Videos/2021-01-15 23-25-09.mp4</property>
    <property name="audio_index">1</property>
    <property name="video_index">0</property>
    <property name="mute_on_pause">0</property>
    <property name="mlt_service">avformat-novalidate</property>
    <property name="seekable">1</property>
    <property name="aspect_ratio">1</property>
    <property name="shotcut:hash">930de6b08857e5fe9700e5dd50299c9a</property>
    <property name="ignore_points">0</property>
    <property name="shotcut:caption">2021-01-15 23-25-09.mp4</property>
    <property name="shotcut:detail">C:\Users\User\Videos\2021-01-15 23-25-09.mp4</property>
    <property name="shotcut:skipConvert">1</property>
    <property name="global_feed">1</property>
    <property name="xml">was here</property>
    <filter id="filter102" in="00:53:10,600" out="00:53:13,767">
      <property name="background">colour:0</property>
      <property name="mlt_service">affine</property>
      <property name="shotcut:filter">affineSizePosition</property>
      <property name="transition.fill">1</property>
      <property name="transition.distort">0</property>
      <property name="transition.rect">-1193 -1049 3532 1990 1</property>
      <property name="transition.valign">top</property>
      <property name="transition.halign">left</property>
      <property name="shotcut:animIn">00:00:00,000</property>
      <property name="shotcut:animOut">00:00:00,000</property>
      <property name="transition.threads">0</property>
      <property name="disable">0</property>
    </filter>
    <filter id="filter103" in="00:53:10,600" out="00:53:13,767">
      <property name="argument">На сим кинокарточна "Шизоидные Истории: эпизод 1, Ржавая Шизофазия"
                           ЗАВЕРШЕН
В ролях:
SORRY - Rostislave

</property>
      <property name="geometry">-3 -7 1920 1080 1</property>
      <property name="family">Verdana</property>
      <property name="size">180</property>
      <property name="weight">500</property>
      <property name="style">normal</property>
      <property name="fgcolour">#ffffffff</property>
      <property name="bgcolour">#00000000</property>
      <property name="olcolour">#ff000000</property>
      <property name="pad">0</property>
      <property name="halign">center</property>
      <property name="valign">bottom</property>
      <property name="outline">0</property>
      <property name="mlt_service">dynamictext</property>
      <property name="shotcut:filter">dynamicText</property>
      <property name="shotcut:usePointSize">0</property>
      <property name="shotcut:animIn">00:00:00,000</property>
      <property name="shotcut:animOut">00:00:00,000</property>
    </filter>
  </producer>
  <producer id="producer60" title="Anonymous Submission" in="00:00:00,000" out="01:28:15,367">
    <property name="length">01:28:15:12</property>
    <property name="eof">pause</property>
    <property name="resource">C:/Users/User/Videos/2021-01-15 23-25-09.mp4</property>
    <property name="audio_index">1</property>
    <property name="video_index">0</property>
    <property name="mute_on_pause">0</property>
    <property name="mlt_service">avformat-novalidate</property>
    <property name="seekable">1</property>
    <property name="aspect_ratio">1</property>
    <property name="shotcut:hash">930de6b08857e5fe9700e5dd50299c9a</property>
    <property name="ignore_points">0</property>
    <property name="shotcut:caption">2021-01-15 23-25-09.mp4</property>
    <property name="shotcut:detail">C:\Users\User\Videos\2021-01-15 23-25-09.mp4</property>
    <property name="shotcut:skipConvert">1</property>
    <property name="global_feed">1</property>
    <property name="xml">was here</property>
    <filter id="filter104" in="00:53:13,800" out="00:53:16,700">
      <property name="background">colour:0</property>
      <property name="mlt_service">affine</property>
      <property name="shotcut:filter">affineSizePosition</property>
      <property name="transition.fill">1</property>
      <property name="transition.distort">0</property>
      <property name="transition.rect">-1193 -1049 3532 1990 1</property>
      <property name="transition.valign">top</property>
      <property name="transition.halign">left</property>
      <property name="shotcut:animIn">00:00:00,000</property>
      <property name="shotcut:animOut">00:00:00,000</property>
      <property name="transition.threads">0</property>
      <property name="disable">0</property>
    </filter>
    <filter id="filter105" in="00:53:13,800" out="00:53:16,700">
      <property name="argument">На сим кинокарточна "Шизоидные Истории: эпизод 1, Ржавая Шизофазия"
                           ЗАВЕРШЕН
В ролях:
 Rostislave - Rostyanchik

</property>
      <property name="geometry">-3 -7 1920 1080 1</property>
      <property name="family">Verdana</property>
      <property name="size">180</property>
      <property name="weight">500</property>
      <property name="style">normal</property>
      <property name="fgcolour">#ffffffff</property>
      <property name="bgcolour">#00000000</property>
      <property name="olcolour">#ff000000</property>
      <property name="pad">0</property>
      <property name="halign">center</property>
      <property name="valign">bottom</property>
      <property name="outline">0</property>
      <property name="mlt_service">dynamictext</property>
      <property name="shotcut:filter">dynamicText</property>
      <property name="shotcut:usePointSize">0</property>
      <property name="shotcut:animIn">00:00:00,000</property>
      <property name="shotcut:animOut">00:00:00,000</property>
    </filter>
  </producer>
  <producer id="producer61" title="Anonymous Submission" in="00:00:00,000" out="01:28:15,367">
    <property name="length">01:28:15:12</property>
    <property name="eof">pause</property>
    <property name="resource">C:/Users/User/Videos/2021-01-15 23-25-09.mp4</property>
    <property name="audio_index">1</property>
    <property name="video_index">0</property>
    <property name="mute_on_pause">0</property>
    <property name="mlt_service">avformat-novalidate</property>
    <property name="seekable">1</property>
    <property name="aspect_ratio">1</property>
    <property name="shotcut:hash">930de6b08857e5fe9700e5dd50299c9a</property>
    <property name="ignore_points">0</property>
    <property name="shotcut:caption">2021-01-15 23-25-09.mp4</property>
    <property name="shotcut:detail">C:\Users\User\Videos\2021-01-15 23-25-09.mp4</property>
    <property name="shotcut:skipConvert">1</property>
    <property name="global_feed">1</property>
    <property name="xml">was here</property>
    <filter id="filter106" in="00:53:16,733" out="00:53:17,500">
      <property name="background">colour:0</property>
      <property name="mlt_service">affine</property>
      <property name="shotcut:filter">affineSizePosition</property>
      <property name="transition.fill">1</property>
      <property name="transition.distort">0</property>
      <property name="transition.rect">-1193 -1049 3532 1990 1</property>
      <property name="transition.valign">top</property>
      <property name="transition.halign">left</property>
      <property name="shotcut:animIn">00:00:00,000</property>
      <property name="shotcut:animOut">00:00:00,000</property>
      <property name="transition.threads">0</property>
      <property name="disable">0</property>
    </filter>
    <filter id="filter107" in="00:53:16,733" out="00:53:17,500">
      <property name="argument">На сим кинокарточна "Шизоидные Истории: эпизод 1, Ржавая Шизофазия"
                           ЗАВЕРШЕН
В ролях:
ROSTIGGERMANTELLER - DEUSKRAFTWER

</property>
      <property name="geometry">-3 -7 1920 1080 1</property>
      <property name="family">Verdana</property>
      <property name="size">180</property>
      <property name="weight">500</property>
      <property name="style">normal</property>
      <property name="fgcolour">#ffffffff</property>
      <property name="bgcolour">#00000000</property>
      <property name="olcolour">#ff000000</property>
      <property name="pad">0</property>
      <property name="halign">center</property>
      <property name="valign">bottom</property>
      <property name="outline">0</property>
      <property name="mlt_service">dynamictext</property>
      <property name="shotcut:filter">dynamicText</property>
      <property name="shotcut:usePointSize">0</property>
      <property name="shotcut:animIn">00:00:00,000</property>
      <property name="shotcut:animOut">00:00:00,000</property>
    </filter>
  </producer>
  <producer id="producer62" title="Anonymous Submission" in="00:00:00,000" out="01:28:15,367">
    <property name="length">01:28:15:12</property>
    <property name="eof">pause</property>
    <property name="resource">C:/Users/User/Videos/2021-01-15 23-25-09.mp4</property>
    <property name="audio_index">1</property>
    <property name="video_index">0</property>
    <property name="mute_on_pause">0</property>
    <property name="mlt_service">avformat-novalidate</property>
    <property name="seekable">1</property>
    <property name="aspect_ratio">1</property>
    <property name="shotcut:hash">930de6b08857e5fe9700e5dd50299c9a</property>
    <property name="ignore_points">0</property>
    <property name="shotcut:caption">2021-01-15 23-25-09.mp4</property>
    <property name="shotcut:detail">C:\Users\User\Videos\2021-01-15 23-25-09.mp4</property>
    <property name="shotcut:skipConvert">1</property>
    <property name="global_feed">1</property>
    <property name="xml">was here</property>
    <filter id="filter108" in="00:53:17,533" out="00:53:21,133">
      <property name="background">colour:0</property>
      <property name="mlt_service">affine</property>
      <property name="shotcut:filter">affineSizePosition</property>
      <property name="transition.fill">1</property>
      <property name="transition.distort">0</property>
      <property name="transition.rect">-1193 -1049 3532 1990 1</property>
      <property name="transition.valign">top</property>
      <property name="transition.halign">left</property>
      <property name="shotcut:animIn">00:00:00,000</property>
      <property name="shotcut:animOut">00:00:00,000</property>
      <property name="transition.threads">0</property>
      <property name="disable">0</property>
    </filter>
    <filter id="filter109" in="00:53:17,533" out="00:53:21,133">
      <property name="argument">На сим кинокарточна "Шизоидные Истории: эпизод 1, Ржавая Шизофазия"
                           ЗАВЕРШЕН
В ролях:
Rostyanchik - Rostiggermanteller.

</property>
      <property name="geometry">-3 -7 1920 1080 1</property>
      <property name="family">Verdana</property>
      <property name="size">180</property>
      <property name="weight">500</property>
      <property name="style">normal</property>
      <property name="fgcolour">#ffffffff</property>
      <property name="bgcolour">#00000000</property>
      <property name="olcolour">#ff000000</property>
      <property name="pad">0</property>
      <property name="halign">center</property>
      <property name="valign">bottom</property>
      <property name="outline">0</property>
      <property name="mlt_service">dynamictext</property>
      <property name="shotcut:filter">dynamicText</property>
      <property name="shotcut:usePointSize">0</property>
      <property name="shotcut:animIn">00:00:00,000</property>
      <property name="shotcut:animOut">00:00:00,000</property>
    </filter>
  </producer>
  <producer id="producer63" title="Anonymous Submission" in="00:00:00,000" out="01:28:15,367">
    <property name="length">01:28:15:12</property>
    <property name="eof">pause</property>
    <property name="resource">C:/Users/User/Videos/2021-01-15 23-25-09.mp4</property>
    <property name="audio_index">1</property>
    <property name="video_index">0</property>
    <property name="mute_on_pause">0</property>
    <property name="mlt_service">avformat-novalidate</property>
    <property name="seekable">1</property>
    <property name="aspect_ratio">1</property>
    <property name="shotcut:hash">930de6b08857e5fe9700e5dd50299c9a</property>
    <property name="ignore_points">0</property>
    <property name="shotcut:caption">2021-01-15 23-25-09.mp4</property>
    <property name="shotcut:detail">C:\Users\User\Videos\2021-01-15 23-25-09.mp4</property>
    <property name="shotcut:skipConvert">1</property>
    <property name="global_feed">1</property>
    <property name="xml">was here</property>
    <filter id="filter110" in="00:53:21,167" out="00:53:24,833">
      <property name="background">colour:0</property>
      <property name="mlt_service">affine</property>
      <property name="shotcut:filter">affineSizePosition</property>
      <property name="transition.fill">1</property>
      <property name="transition.distort">0</property>
      <property name="transition.rect">-1193 -1049 3532 1990 1</property>
      <property name="transition.valign">top</property>
      <property name="transition.halign">left</property>
      <property name="shotcut:animIn">00:00:00,000</property>
      <property name="shotcut:animOut">00:00:00,000</property>
      <property name="transition.threads">0</property>
      <property name="disable">0</property>
    </filter>
    <filter id="filter111" in="00:53:21,167" out="00:53:24,833">
      <property name="argument">На сим кинокарточна "Шизоидные Истории: эпизод 1, Ржавая Шизофазия"
                           ЗАВЕРШЕН
В ролях:
Он же главный шиз, почитатель Эльдара Богунова и Хмастер ИКП.

</property>
      <property name="geometry">-3 -7 1920 1080 1</property>
      <property name="family">Verdana</property>
      <property name="size">180</property>
      <property name="weight">500</property>
      <property name="style">normal</property>
      <property name="fgcolour">#ffffffff</property>
      <property name="bgcolour">#00000000</property>
      <property name="olcolour">#ff000000</property>
      <property name="pad">0</property>
      <property name="halign">center</property>
      <property name="valign">bottom</property>
      <property name="outline">0</property>
      <property name="mlt_service">dynamictext</property>
      <property name="shotcut:filter">dynamicText</property>
      <property name="shotcut:usePointSize">0</property>
      <property name="shotcut:animIn">00:00:00,000</property>
      <property name="shotcut:animOut">00:00:00,000</property>
    </filter>
    <filter id="filter112" in="00:53:21,167" out="00:53:24,833">
      <property name="start">1</property>
      <property name="level">00:00:02,700=1;00:00:03,667=0</property>
      <property name="mlt_service">brightness</property>
      <property name="shotcut:filter">fadeOutBrightness</property>
      <property name="alpha">1</property>
      <property name="shotcut:animOut">00:00:01,000</property>
      <property name="transition.rect">00:00:18,833=0 0 0 0 1;00:00:19,800=0 0 0 0 1</property>
    </filter>
  </producer>
  <playlist id="playlist0">
    <property name="shotcut:video">1</property>
    <property name="shotcut:name">V1</property>
    <entry producer="producer0" in="00:33:19,900" out="00:33:22,300"/>
    <entry producer="producer1" in="00:33:22,333" out="00:33:24,733"/>
    <entry producer="producer2" in="00:33:24,767" out="00:33:28,733"/>
    <entry producer="producer3" in="00:33:28,767" out="00:34:04,733"/>
    <entry producer="producer4" in="00:34:04,767" out="00:34:09,233"/>
    <entry producer="producer5" in="00:34:09,267" out="00:34:10,833"/>
    <entry producer="producer6" in="00:34:10,867" out="00:34:13,367"/>
    <entry producer="producer7" in="00:34:13,400" out="00:34:16,167"/>
    <entry producer="producer8" in="00:34:37,933" out="00:34:51,533"/>
    <entry producer="producer9" in="00:34:51,567" out="00:34:52,167"/>
    <entry producer="producer10" in="00:34:52,200" out="00:34:57,900"/>
    <entry producer="producer11" in="00:35:11,900" out="00:35:17,133"/>
    <entry producer="producer12" in="00:35:17,167" out="00:35:18,967"/>
    <entry producer="producer13" in="00:35:19,000" out="00:35:32,633"/>
    <entry producer="producer14" in="00:35:32,667" out="00:35:36,400"/>
    <entry producer="producer15" in="00:35:36,433" out="00:35:45,500"/>
    <entry producer="producer16" in="00:35:45,533" out="00:35:46,867"/>
    <entry producer="producer17" in="00:35:46,900" out="00:35:55,733"/>
    <entry producer="producer18" in="00:36:46,033" out="00:37:04,967"/>
    <entry producer="producer19" in="00:37:05,000" out="00:37:18,567"/>
    <entry producer="producer20" in="00:37:18,600" out="00:37:26,333"/>
    <blank length="00:00:00,533"/>
    <entry producer="producer21" in="00:37:56,100" out="00:38:02,167"/>
    <entry producer="producer22" in="00:38:02,200" out="00:38:13,767"/>
    <entry producer="producer23" in="00:38:13,800" out="00:38:54,100"/>
    <blank length="00:00:00,533"/>
    <entry producer="producer24" in="00:39:05,067" out="00:39:08,367"/>
    <entry producer="producer25" in="00:39:08,400" out="00:39:09,033"/>
    <entry producer="producer26" in="00:39:09,067" out="00:39:58,133"/>
    <entry producer="producer27" in="00:39:58,167" out="00:40:38,200"/>
    <entry producer="producer28" in="00:40:38,233" out="00:40:53,700"/>
    <entry producer="producer29" in="00:40:53,733" out="00:41:05,667"/>
    <entry producer="producer30" in="00:41:05,700" out="00:41:08,767"/>
    <entry producer="producer31" in="00:41:15,433" out="00:42:16,300"/>
    <entry producer="producer32" in="00:42:16,333" out="00:42:18,367"/>
    <entry producer="producer33" in="00:42:18,400" out="00:42:21,800"/>
    <entry producer="producer34" in="00:42:21,833" out="00:42:22,733"/>
    <entry producer="producer35" in="00:42:22,767" out="00:42:27,933"/>
    <entry producer="producer36" in="00:42:27,967" out="00:42:31,167"/>
    <entry producer="producer37" in="00:42:31,200" out="00:42:41,267"/>
    <blank length="00:00:00,433"/>
    <entry producer="producer38" in="00:46:53,700" out="00:46:54,233"/>
    <entry producer="producer39" in="00:46:54,267" out="00:46:54,833"/>
    <entry producer="producer40" in="00:46:54,867" out="00:47:03,567"/>
    <entry producer="producer41" in="00:47:03,600" out="00:47:04,533"/>
    <blank length="00:00:03,133"/>
    <entry producer="producer42" in="00:48:20,867" out="00:48:21,300"/>
    <entry producer="producer43" in="00:48:21,333" out="00:48:38,000"/>
    <entry producer="producer44" in="00:48:38,033" out="00:48:41,033"/>
    <entry producer="producer45" in="00:48:41,067" out="00:48:48,833"/>
    <entry producer="producer46" in="00:48:48,867" out="00:48:51,767"/>
    <entry producer="producer47" in="00:48:51,800" out="00:49:05,400"/>
    <entry producer="producer48" in="00:51:06,600" out="00:51:36,733"/>
    <entry producer="producer49" in="01:43:13,533" out="01:43:15,200"/>
    <entry producer="producer50" in="00:52:15,233" out="00:52:20,833"/>
    <entry producer="producer51" in="00:52:20,867" out="00:52:23,433"/>
    <entry producer="producer52" in="00:52:23,467" out="00:52:25,933"/>
    <entry producer="producer53" in="00:52:25,967" out="00:52:27,500"/>
    <entry producer="producer54" in="00:53:05,033" out="00:53:05,533"/>
    <entry producer="producer55" in="00:53:05,567" out="00:53:06,567"/>
    <entry producer="producer56" in="00:53:06,600" out="00:53:07,233"/>
    <entry producer="producer57" in="00:53:07,267" out="00:53:07,833"/>
    <entry producer="producer58" in="00:53:07,867" out="00:53:10,567"/>
    <entry producer="producer59" in="00:53:10,600" out="00:53:13,767"/>
    <entry producer="producer60" in="00:53:13,800" out="00:53:16,700"/>
    <entry producer="producer61" in="00:53:16,733" out="00:53:17,500"/>
    <entry producer="producer62" in="00:53:17,533" out="00:53:21,133"/>
    <entry producer="producer63" in="00:53:21,167" out="00:53:24,833"/>
  </playlist>
  <tractor id="tractor0" title="Shotcut version 19.02.28" global_feed="1" in="00:00:00,000" out="00:09:12,167">
    <property name="shotcut">1</property>
    <property name="shotcut:projectAudioChannels">2</property>
    <property name="shotcut:projectFolder">1</property>
    <track producer="background"/>
    <track producer="playlist0"/>
    <transition id="transition0">
      <property name="a_track">0</property>
      <property name="b_track">1</property>
      <property name="mlt_service">mix</property>
      <property name="always_active">1</property>
      <property name="sum">1</property>
    </transition>
    <transition id="transition1">
      <property name="a_track">0</property>
      <property name="b_track">1</property>
      <property name="version">0,9</property>
      <property name="mlt_service">frei0r.cairoblend</property>
      <property name="disable">1</property>
    </transition>
  </tractor>
</mlt>
